<?xml version="1.0" standalone="no"?>
<!DOCTYPE svg PUBLIC "-//W3C//DTD SVG 20010904//EN"
 "http://www.w3.org/TR/2001/REC-SVG-20010904/DTD/svg10.dtd">
<svg version="1.0" xmlns="http://www.w3.org/2000/svg"
 width="224.000000pt" height="224.000000pt" viewBox="0 0 224.000000 224.000000"
 preserveAspectRatio="xMidYMid meet">
<metadata>
Created by potrace 1.14, written by Peter Selinger 2001-2017
</metadata>
<g transform="translate(0.000000,224.000000) scale(0.100000,-0.100000)"
fill="#000000" stroke="none">
<path d="M1031 2224 c-251 -52 -504 -358 -754 -915 -68 -150 -192 -526 -213
-644 -3 -16 -9 -48 -14 -70 -9 -41 -13 -69 -25 -165 -4 -30 -9 -64 -12 -75 -2
-11 -6 -95 -10 -188 l-6 -167 474 0 c425 1 470 2 440 15 -18 8 -38 15 -43 15
-15 0 -152 66 -205 100 -72 45 -161 138 -190 200 -22 45 -27 69 -27 130 0 64
5 85 32 140 71 146 244 272 442 324 290 75 652 -52 793 -280 84 -136 65 -302
-47 -418 -81 -84 -166 -136 -319 -196 l-72 -29 483 0 482 -1 0 153 c0 169 -23
310 -95 592 -20 77 -38 147 -40 155 -18 73 -128 343 -204 505 -85 178 -137
272 -230 410 -127 189 -220 282 -361 358 -113 61 -176 72 -279 51z m170 -394
c125 -47 259 -192 358 -388 70 -139 100 -263 92 -375 -1 -24 -57 -47 -90 -37
-14 4 -66 28 -116 53 -197 98 -340 119 -495 70 -30 -9 -111 -46 -180 -80 -171
-86 -202 -83 -201 19 1 194 123 461 285 624 120 120 232 157 347 114z"/>
</g>
</svg>
