<?xml version="1.0" encoding="UTF-8" standalone="no"?>
<!-- Generator: Adobe Illustrator 26.0.3, SVG Export Plug-In . SVG Version: 6.00 Build 0)  -->

<svg
   version="1.1"
   x="0px"
   y="0px"
   viewBox="0 0 433.48 66"
   xml:space="preserve"
   id="svg1090"
   sodipodi:docname="adelphi_brothers_logo.svg"
   inkscape:version="1.2 (dc2aedaf03, 2022-05-15)"
   width="433.48001"
   height="66"
   xmlns:inkscape="http://www.inkscape.org/namespaces/inkscape"
   xmlns:sodipodi="http://sodipodi.sourceforge.net/DTD/sodipodi-0.dtd"
   xmlns="http://www.w3.org/2000/svg"
   xmlns:svg="http://www.w3.org/2000/svg"><defs
   id="defs1094"><clipPath
     clipPathUnits="userSpaceOnUse"
     id="clipPath4278"><rect
       style="fill:#000000;fill-opacity:0;stroke:#000000;stroke-width:0.135243;stroke-dasharray:none;stroke-opacity:1"
       id="rect4280"
       width="421.33585"
       height="56.335842"
       x="10.457079"
       y="8.2070799" /></clipPath><clipPath
     clipPathUnits="userSpaceOnUse"
     id="clipPath4282"><rect
       style="fill:#000000;fill-opacity:0;stroke:#000000;stroke-width:0.135243;stroke-dasharray:none;stroke-opacity:1"
       id="rect4284"
       width="421.33585"
       height="56.335842"
       x="10.457079"
       y="8.2070799" /></clipPath><clipPath
     clipPathUnits="userSpaceOnUse"
     id="clipPath4286"><rect
       style="fill:#000000;fill-opacity:0;stroke:#000000;stroke-width:0.135243;stroke-dasharray:none;stroke-opacity:1"
       id="rect4288"
       width="421.33585"
       height="56.335842"
       x="10.457079"
       y="8.2070799" /></clipPath><clipPath
     clipPathUnits="userSpaceOnUse"
     id="clipPath4290"><rect
       style="fill:#000000;fill-opacity:0;stroke:#000000;stroke-width:0.135243;stroke-dasharray:none;stroke-opacity:1"
       id="rect4292"
       width="421.33585"
       height="56.335842"
       x="10.457079"
       y="8.2070799" /></clipPath><clipPath
     clipPathUnits="userSpaceOnUse"
     id="clipPath4294"><rect
       style="fill:#000000;fill-opacity:0;stroke:#000000;stroke-width:0.135243;stroke-dasharray:none;stroke-opacity:1"
       id="rect4296"
       width="421.33585"
       height="56.335842"
       x="10.457079"
       y="8.2070799" /></clipPath><clipPath
     clipPathUnits="userSpaceOnUse"
     id="clipPath4298"><rect
       style="fill:#000000;fill-opacity:0;stroke:#000000;stroke-width:0.135243;stroke-dasharray:none;stroke-opacity:1"
       id="rect4300"
       width="421.33585"
       height="56.335842"
       x="10.457079"
       y="8.2070799" /></clipPath><clipPath
     clipPathUnits="userSpaceOnUse"
     id="clipPath4302"><rect
       style="fill:#000000;fill-opacity:0;stroke:#000000;stroke-width:0.135243;stroke-dasharray:none;stroke-opacity:1"
       id="rect4304"
       width="421.33585"
       height="56.335842"
       x="10.457079"
       y="8.2070799" /></clipPath><clipPath
     clipPathUnits="userSpaceOnUse"
     id="clipPath4306"><rect
       style="fill:#000000;fill-opacity:0;stroke:#000000;stroke-width:0.135243;stroke-dasharray:none;stroke-opacity:1"
       id="rect4308"
       width="421.33585"
       height="56.335842"
       x="10.457079"
       y="8.2070799" /></clipPath><clipPath
     clipPathUnits="userSpaceOnUse"
     id="clipPath4310"><rect
       style="fill:#000000;fill-opacity:0;stroke:#000000;stroke-width:0.135243;stroke-dasharray:none;stroke-opacity:1"
       id="rect4312"
       width="421.33585"
       height="56.335842"
       x="10.457079"
       y="8.2070799" /></clipPath><clipPath
     clipPathUnits="userSpaceOnUse"
     id="clipPath4314"><rect
       style="fill:#000000;fill-opacity:0;stroke:#000000;stroke-width:0.135243;stroke-dasharray:none;stroke-opacity:1"
       id="rect4316"
       width="421.33585"
       height="56.335842"
       x="10.457079"
       y="8.2070799" /></clipPath><clipPath
     clipPathUnits="userSpaceOnUse"
     id="clipPath4318"><rect
       style="fill:#000000;fill-opacity:0;stroke:#000000;stroke-width:0.135243;stroke-dasharray:none;stroke-opacity:1"
       id="rect4320"
       width="421.33585"
       height="56.335842"
       x="10.457079"
       y="8.2070799" /></clipPath><clipPath
     clipPathUnits="userSpaceOnUse"
     id="clipPath4322"><rect
       style="fill:#000000;fill-opacity:0;stroke:#000000;stroke-width:0.135243;stroke-dasharray:none;stroke-opacity:1"
       id="rect4324"
       width="421.33585"
       height="56.335842"
       x="10.457079"
       y="8.2070799" /></clipPath><clipPath
     clipPathUnits="userSpaceOnUse"
     id="clipPath4326"><rect
       style="fill:#000000;fill-opacity:0;stroke:#000000;stroke-width:0.135243;stroke-dasharray:none;stroke-opacity:1"
       id="rect4328"
       width="421.33585"
       height="56.335842"
       x="10.457079"
       y="8.2070799" /></clipPath><clipPath
     clipPathUnits="userSpaceOnUse"
     id="clipPath4330"><rect
       style="fill:#000000;fill-opacity:0;stroke:#000000;stroke-width:0.135243;stroke-dasharray:none;stroke-opacity:1"
       id="rect4332"
       width="421.33585"
       height="56.335842"
       x="10.457079"
       y="8.2070799" /></clipPath><clipPath
     clipPathUnits="userSpaceOnUse"
     id="clipPath4334"><rect
       style="fill:#000000;fill-opacity:0;stroke:#000000;stroke-width:0.135243;stroke-dasharray:none;stroke-opacity:1"
       id="rect4336"
       width="421.33585"
       height="56.335842"
       x="10.457079"
       y="8.2070799" /></clipPath></defs><sodipodi:namedview
   id="namedview1092"
   pagecolor="#ffffff"
   bordercolor="#000000"
   borderopacity="0.25"
   inkscape:showpageshadow="2"
   inkscape:pageopacity="0.0"
   inkscape:pagecheckerboard="true"
   inkscape:deskcolor="#d1d1d1"
   showgrid="false"
   inkscape:zoom="2"
   inkscape:cx="244.25"
   inkscape:cy="-15"
   inkscape:window-width="1920"
   inkscape:window-height="1017"
   inkscape:window-x="-8"
   inkscape:window-y="-8"
   inkscape:window-maximized="1"
   inkscape:current-layer="layer1" />
<style
   type="text/css"
   id="style639">
	.st0{enable-background:new    ;}
	.st1{fill:#FFFFFF;}
	.st2{fill:#202021;}
	.st3{fill:#F7F7F8;}
	.st4{fill:none;stroke:#FFFFFF;stroke-miterlimit:10;}
	.st5{fill:#FDFEFE;}
</style>
<g
   inkscape:groupmode="layer"
   id="layer1"
   inkscape:label="Layer 1"><rect
     style="fill:#ff80ff;fill-opacity:1;stroke:#000000;stroke-width:0.136612"
     id="rect4364"
     width="435.49945"
     height="65.999451"
     x="-0.49972528"
     y="0.00027470721" /></g><g
   id="A_00000047774185925011521400000017929968242027757217_"
   class="st0"
   clip-path="url(#clipPath4334)"
   transform="translate(-4,-3)">
	<g
   id="g649">
		<g
   id="g647">
			
			<path
   class="st2"
   d="m 29.78,63.42 c 2.37,-1.18 4.35,-2.86 5.75,-5.16 3.47,-5.7 1.05,-14.02 -4.9,-16.87 -3.12,-1.49 -5.97,-0.81 -8.43,1.37 -6.21,5.51 -6.44,15.6 2.5,20.39 0.16,0.09 0.4,0.1 0.44,0.37 -0.26,0.43 -0.71,0.28 -1.07,0.28 -3.96,0.01 -7.91,-0.01 -11.87,0.03 -0.76,0.01 -0.92,-0.24 -0.92,-0.94 -0.07,-8.5 0.8,-16.89 2.68,-25.19 1.44,-6.39 3.09,-12.71 5.63,-18.76 1.1,-2.62 2.31,-5.19 4.28,-7.28 0.94,-1.01 1.98,-1.94 3.5,-2.03 1.52,-0.08 2.52,0.86 3.48,1.79 2.04,1.99 3.25,4.53 4.37,7.09 2.51,5.76 4.13,11.8 5.65,17.88 1.58,6.33 2.43,12.77 3.09,19.24 0.25,2.49 0.13,5.03 0.19,7.54 0.01,0.41 -0.06,0.66 -0.58,0.65 -4.43,-0.02 -8.87,-0.02 -13.3,-0.04 -0.2,0.01 -0.41,-0.02 -0.49,-0.36 z M 19.58,36.27 c 0,0.56 -0.02,1.12 0.01,1.67 0.03,0.47 0.03,1 0.58,1.21 0.51,0.2 0.83,-0.21 1.15,-0.48 0.77,-0.64 1.48,-1.35 2.26,-1.97 2.75,-2.17 5.05,-2.2 7.85,-0.14 0.39,0.28 0.72,0.64 1.13,0.89 0.74,0.46 1.3,1.68 2.28,1.14 0.94,-0.51 0.63,-1.73 0.59,-2.65 -0.19,-3.83 -1.23,-7.47 -2.7,-10.99 -0.74,-1.78 -1.6,-3.49 -2.97,-4.88 -1.52,-1.53 -2.95,-1.53 -4.49,-0.05 -0.67,0.64 -1.19,1.4 -1.64,2.2 -2.44,4.39 -3.6,9.13 -4.05,14.05 z"
   id="path643"
   style="fill:#000000" />
			
		</g>
	</g>
	<g
   id="g655">
		<g
   id="g653">
			
		</g>
	</g>
	<g
   id="g661">
		<g
   id="g659">
			
		</g>
	</g>
	<g
   id="g667">
		<g
   id="g665">
			
		</g>
	</g>
	<g
   id="g673">
		<g
   id="g671">
			
		</g>
	</g>
	<g
   id="g679">
		<g
   id="g677">
			
		</g>
	</g>
	<g
   id="g685">
		<g
   id="g683">
			
		</g>
	</g>
</g>
<g
   id="D_xA0_Image_00000069356055637647294980000017168001504841422003_"
   clip-path="url(#clipPath4330)"
   transform="translate(-4,-3)">
	<g
   id="g698">
		<g
   id="g696">
			<path
   d="M 56.961671,63.893055 50.86,63.84 C 50.45,63.66 50.394856,63.734856 49.62,63.419582 49.04611,62.968199 48.345144,62.910418 48.325144,62.200418 48.384308,58.50389 48.34,54.94 48.31,51.26 48.21,40.48 47.97,29.68 49.65,18.98 c 0.51,-3.22 0.99,-6.51 3.59,-8.9 h 1.43 c 0.12,0.16 0.2,0.36 0.35,0.46 3,1.98 5.35,4.64 7.42,7.53 4.03,5.63 6.78,11.9 8.6,18.58 1.36,5.01 1.97,10.1 0.99,15.3 -0.6,3.2 -1.88,5.9 -4.54,7.86 -2.59,1.91 -5.085562,3.175274 -8.215562,3.715274 -0.55,0.09 -1.580548,0.433055 -2.312767,0.367781 z M 52.59,35.25 c 0.24,3.45 0.29,7.06 0.79,10.61 0.44,3.1 1.17,6.2 2.15,9.17 0.87,2.6 2.66,3.02 4.84,1.32 3.51,-2.73 5.72,-6.35 6.09,-10.83 0.51,-6.27 -0.94,-12.18 -4.24,-17.51 -1.35,-2.18 -3.04,-4.18 -4.82,-6.04 -1.27,-1.33 -2.51,-0.96 -3.28,0.72 -0.41,0.89 -0.76,1.88 -0.85,2.85 -0.28,3.17 -0.45,6.36 -0.68,9.71 z"
   id="path688"
   sodipodi:nodetypes="ccccccccccccccccccccccccc" />
			
			
			
		</g>
	</g>
	<g
   id="g704">
		<g
   id="g702">
			
		</g>
	</g>
	<path
   class="st4"
   d="M 49.44,63.36"
   id="path706" />
	<path
   class="st4"
   d="M 58.1,63.43"
   id="path708" />
	<path
   class="st4"
   d="M 50.28,63.57"
   id="path710" />
	<g
   id="g716">
		<g
   id="g714">
			
		</g>
	</g>
	<g
   id="g722">
		<g
   id="g720">
			
		</g>
	</g>
</g>
<g
   id="E_xA0_Image_00000170977620299830753730000016252138667960391346_"
   clip-path="url(#clipPath4326)"
   transform="translate(-4,-3)">
	<g
   id="g733">
		<g
   id="g731">
			<path
   d="m 96.48,50.4 c 0,4.3 0,8.61 0,12.96 -6.72,0 -13.44,0 -20.16,0 0,-17.76 0,-35.52 0,-53.28 6.25,0 12.49,0 18.74,0 0,4.47 0,8.95 0,13.42 -0.39,-0.18 -0.49,-0.38 -0.6,-0.59 -2.01,-3.95 -6.23,-5.89 -10.49,-4.82 -0.61,0.15 -1.21,0.28 -1.21,1.18 0.03,5.6 0,11.2 0.05,16.8 0,0.31 0.46,0.84 0.76,0.89 3.75,0.61 7.75,-1.57 9.42,-5.05 0.14,-0.3 0.31,-0.59 0.62,-1.18 0,4.69 0,9.02 0,13.5 -3.3,-3.8 -5.87,-4.59 -9.78,-3.18 -0.72,0.26 -1.08,0.63 -1.07,1.47 0.03,5 0.03,10 0,15 0,0.78 0.2,1.13 1.03,1.22 5.19,0.56 10.1,-2.39 12.04,-7.28 0.15,-0.38 0.43,-0.71 0.65,-1.06 z"
   id="path725" />
			
			<path
   class="st1"
   d="m 76.32,10.08 c 0,17.76 0,35.52 0,53.28 -0.08,-0.16 -0.23,-0.32 -0.23,-0.48 -0.01,-17.44 -0.01,-34.88 0,-52.32 0,-0.16 0.15,-0.32 0.23,-0.48 z"
   id="path729" />
		</g>
	</g>
</g>
<g
   id="E_copy_xA0_Image_00000063594763361147196480000010852325457868596622_"
   clip-path="url(#clipPath4322)"
   transform="translate(-4,-3)">
	<g
   id="g744">
		<g
   id="g742">
			<path
   d="m 369.84,49.92 c 0,4.32 0,8.64 0,12.96 -6.8,0 -13.6,0 -20.4,0 0,-17.76 0,-35.52 0,-53.28 6.33,0 12.65,0 18.98,0 0,4.48 0,8.97 0,13.45 -0.12,0.01 -0.24,0.02 -0.37,0.04 -0.13,-0.23 -0.26,-0.46 -0.38,-0.7 -1.99,-3.9 -6.34,-5.87 -10.52,-4.75 -0.63,0.17 -1.15,0.37 -1.14,1.24 0.03,5.56 0.02,11.11 0.01,16.67 0,0.63 0.18,0.95 0.86,0.99 3.83,0.23 6.88,-1.13 9,-4.42 0.31,-0.48 0.54,-1.01 0.8,-1.52 0.07,0.02 0.13,0.04 0.2,0.06 0,4.3 0,8.6 0,13.08 -0.26,-0.24 -0.39,-0.31 -0.47,-0.43 -2.07,-3.39 -6.06,-3.98 -9.44,-2.69 -0.69,0.26 -0.97,0.67 -0.96,1.43 0.03,5 0.03,9.99 0,14.99 -0.01,0.89 0.3,1.17 1.14,1.24 5.32,0.47 10.02,-2.45 12.02,-7.5 0.12,-0.32 0.44,-0.57 0.67,-0.86 z"
   id="path736" />
			
			<path
   class="st1"
   d="m 349.44,9.6 c 0,17.76 0,35.52 0,53.28 -0.08,-0.16 -0.23,-0.32 -0.23,-0.48 -0.01,-17.44 -0.01,-34.88 0,-52.32 0,-0.16 0.15,-0.32 0.23,-0.48 z"
   id="path740" />
		</g>
	</g>
</g>
<g
   id="H_xA0_Image_00000170976951284359101930000000537458138064405431_"
   clip-path="url(#clipPath4318)"
   transform="translate(-4,-3)">
	<g
   id="g759">
		<g
   id="g757">
			<path
   d="m 160.69,63.81 c -3.8,0 -7.61,0 -11.41,0 0.17,-0.73 0.39,-1.45 0.52,-2.19 0.85,-4.79 1.87,-9.56 2.47,-14.38 1.14,-9.15 1.1,-18.33 -0.02,-27.48 -0.42,-3.4 -1.02,-6.78 -1.54,-10.17 3.49,0 6.97,0 10.46,0 -0.01,0.2 0,0.4 -0.04,0.6 -0.98,4.73 -2,9.45 -2.95,14.18 -0.5,2.52 -0.81,5.06 0.3,7.54 2.21,4.92 7.57,5.5 10.73,1.15 1.16,-1.6 1.64,-3.44 1.31,-5.33 -0.81,-4.59 -1.79,-9.16 -2.71,-13.73 -0.3,-1.47 -0.63,-2.93 -0.94,-4.4 3.96,0 7.92,0 11.88,0 0,0.32 0,0.64 0,0.96 -0.21,0.3 -0.56,0.57 -0.62,0.89 -0.92,4.86 -2.07,9.69 -2.63,14.6 -1.39,12.06 -0.45,24.01 2.61,35.76 0.1,0.38 0.42,0.7 0.64,1.05 0.18,0.82 -0.13,1 -0.95,0.98 -3.64,-0.06 -7.29,-0.02 -10.93,-0.02 0.17,-0.64 0.29,-1.3 0.52,-1.92 1.64,-4.45 2.86,-8.98 2.52,-13.79 -0.19,-2.62 -1.5,-4.59 -3.76,-5.89 -1.69,-0.98 -3.4,-0.94 -5.07,0.1 -2.14,1.33 -3.31,3.29 -3.53,5.79 -0.3,3.31 0.26,6.54 1.17,9.7 0.59,2.02 1.31,4 1.97,6 z"
   id="path747" />
			
			
			
			
		</g>
	</g>
</g>
<g
   id="H_copy_xA0_Image_00000006695120077124933210000018279363944495043769_"
   clip-path="url(#clipPath4314)"
   transform="translate(-4,-3)">
	<g
   id="g774">
		<g
   id="g772">
			<path
   d="m 326.77,63.33 c -3.8,0 -7.61,0 -11.41,0 0.19,-0.64 0.43,-1.26 0.55,-1.91 0.82,-4.52 1.79,-9.01 2.37,-13.56 1.67,-12.99 1.16,-25.91 -1.49,-38.74 3.49,0 6.97,0 10.46,0 0,0.24 0.05,0.48 0.01,0.71 -0.96,4.68 -1.97,9.36 -2.9,14.05 -0.5,2.52 -0.82,5.05 0.26,7.53 2.15,4.93 7.52,5.56 10.71,1.26 1.34,-1.81 1.68,-3.88 1.31,-6.02 -0.66,-3.77 -1.44,-7.51 -2.22,-11.26 -0.44,-2.1 -0.97,-4.18 -1.47,-6.27 3.96,0 7.92,0 11.88,0 0,0.32 0,0.64 0,0.96 -0.19,0.32 -0.46,0.62 -0.56,0.96 -1.46,5.57 -2.36,11.23 -2.86,16.98 -0.95,10.89 0.03,21.62 2.54,32.22 0.18,0.74 0.58,1.43 0.88,2.14 0.18,0.82 -0.13,1 -0.95,0.98 -3.64,-0.06 -7.29,-0.02 -10.93,-0.02 0.2,-0.64 0.37,-1.29 0.61,-1.92 1.64,-4.45 2.85,-8.98 2.51,-13.78 -0.19,-2.63 -1.51,-4.59 -3.76,-5.88 -1.69,-0.97 -3.4,-0.94 -5.06,0.1 -2.18,1.35 -3.35,3.36 -3.55,5.9 -0.3,3.85 0.51,7.54 1.64,11.18 0.46,1.46 0.95,2.93 1.43,4.39 z"
   id="path762" />
			
			
			
			
		</g>
	</g>
</g>
<g
   id="I_xA0_Image_00000107556810345373205200000006892409153485771966_"
   clip-path="url(#clipPath4310)"
   transform="translate(-4,-3)">
	<g
   id="g785">
		<g
   id="g783">
			<path
   d="m 194.88,62.88 c 0,0.32 0,0.63 0,0.96 -3.68,0 -7.36,0 -11.05,0 0.46,-2.99 1.02,-5.96 1.35,-8.96 1.42,-12.75 1.42,-25.49 -0.26,-38.22 -0.31,-2.36 -0.73,-4.71 -1.09,-7.06 3.68,0 7.36,0 11.05,0 0,0.32 0,0.64 0,0.96 -0.18,0.28 -0.47,0.53 -0.53,0.83 -0.81,4.19 -1.75,8.36 -2.34,12.59 -1.74,12.34 -0.86,24.56 1.98,36.65 0.18,0.77 0.59,1.5 0.89,2.25 z"
   id="path777" />
			
			
		</g>
	</g>
	<g
   id="g791">
		<g
   id="g789">
			
		</g>
	</g>
	<g
   id="g797">
		<g
   id="g795">
			
		</g>
	</g>
	<g
   id="g803">
		<g
   id="g801">
			
		</g>
	</g>
	<g
   id="g809">
		<g
   id="g807">
			
		</g>
	</g>
	<g
   id="g815">
		<g
   id="g813">
			
		</g>
	</g>
	<g
   id="g821">
		<g
   id="g819">
			
		</g>
	</g>
	<g
   id="g827">
		<g
   id="g825">
			
		</g>
	</g>
	<g
   id="g833">
		<g
   id="g831">
			
		</g>
	</g>
</g>
<g
   id="B_xA0_Image_00000140702494617783700440000018155870555308715141_"
   clip-path="url(#clipPath4306)"
   transform="translate(-4,-3)">
	<g
   id="g850">
		<g
   id="g848">
			<path
   d="M 225.69979,63.826736 209.73,63.84 c -0.22,-1.9 -0.47,-3.8 -0.64,-5.71 -0.57,-6.24 -1.31,-12.47 -1.61,-18.72 -0.21,-4.24 0.06,-8.53 0.39,-12.77 0.24,-3.05 0.74,-6.11 1.47,-9.08 0.78,-3.17 2.04,-6.18 5.4,-7.57 0.11,-0.05 0.275,-0.0725 0.63625,-0.155625 L 218.165,9.81875 c 0.54625,0.123125 0.625,0.20125 0.805,0.26125 2.39,0.89 4.18,2.56 5.74,4.52 2.63,3.32 4.47,7.06 5.67,11.12 0.99,3.35 1.71,6.74 0.91,10.27 -0.55,2.43 -2.13,3.97 -4.58,4.18 -1.37,0.11 -2.76,-0.06 -4.14,-0.12 -0.28,-0.01 -0.57,-0.05 -0.85,-0.07 0.39,0.55 0.86,0.89 1.33,1.24 4.5,3.36 8.21,7.29 9.3,13.12 0.04,0.23 0.24031,0.705169 0.23452,1.213603 l 0.0199,0.743656 c -0.0327,0.249972 -0.0319,0.522323 -0.0719,0.712323 -0.59,3.51 -0.95036,3.47974 -3.94285,5.387564 -0.22684,0.16295 -1.98684,1.159111 -2.44198,1.31155 z M 212.94,49.9 c 0.23,1.69 0.3,2.86 0.55,3.98 1.06,4.78 5.29,7.17 9.9,5.62 2.08,-0.7 3.19,-2.32 2.68,-4.44 -1.19,-4.92 -4.01,-8.73 -8.33,-11.32 -1.53,-0.92 -2.71,-0.54 -3.38,1.13 -0.69,1.76 -1.04,3.66 -1.42,5.03 z m 0.68,-23.57 c -0.05,5.41 3.29,9.14 8.42,9.37 2.73,0.12 4.18,-1.2 3.89,-3.85 -0.57,-5.12 -2.9,-9.42 -6.6,-12.92 -1.64,-1.55 -2.88,-1.25 -4.03,0.73 -1.21,2.06 -1.6,4.33 -1.68,6.67 z"
   id="path836"
   sodipodi:nodetypes="ccccccccccccccccccccccccccccccccccccc" />
			
			
			
			
			
		</g>
	</g>
	<g
   id="g856">
		<g
   id="g854">
			
		</g>
	</g>
	<g
   id="g862">
		<g
   id="g860">
			
		</g>
	</g>
	<g
   id="g868">
		<g
   id="g866">
			
		</g>
	</g>
	<g
   id="g874">
		<g
   id="g872">
			
		</g>
	</g>
	<g
   id="g880">
		<g
   id="g878">
			
		</g>
	</g>
</g>
<g
   id="R_xA0_Image_00000158014167786836590540000016407491116104230044_"
   clip-path="url(#clipPath4302)"
   transform="translate(-4,-3)">
	<g
   id="g893">
		<g
   id="g891">
			<path
   d="m 258.69,63.84 c -3.17,0 -6.34,0 -9.51,0 0.17,-0.6 0.3,-1.22 0.52,-1.8 2.06,-5.38 0.51,-11.92 -3.68,-15.42 -1.95,-1.63 -3.38,-1.18 -3.9,1.31 -1.06,5.12 -0.24,9.98 2.13,14.61 0.21,0.4 0.27,0.87 0.4,1.31 -2.93,0 -5.87,0 -8.8,0 -0.27,-3.27 -0.59,-6.53 -0.79,-9.8 -0.64,-10.46 -1.16,-20.93 -0.18,-31.4 0.3,-3.18 0.72,-6.37 2.04,-9.32 1.55,-3.45 3.07,-3.95 6.18,-1.94 7.21,4.64 12.27,10.9 13.98,19.55 0.48,2.42 0.91,4.88 0.22,7.37 -0.54,1.95 -1.67,2.89 -3.68,2.86 -0.87,-0.01 -1.73,-0.18 -2.6,-0.2 -0.48,-0.01 -0.96,0.12 -1.44,0.19 0.19,0.44 0.29,0.97 0.6,1.32 1.56,1.76 3.21,3.43 4.75,5.2 3.09,3.57 4.49,7.75 4.17,12.5 -0.09,1.21 -0.27,2.43 -0.41,3.66 z m -8.56,-31.19 c 0.07,-3.64 -2.37,-9.06 -5.37,-11.93 -2.15,-2.06 -3.48,-1.7 -4.41,1.17 -1.12,3.45 -1.21,7 -0.79,10.54 0.18,1.51 0.68,3.04 1.31,4.44 0.87,1.94 2.5,2.55 4.53,2.01 2.94,-0.77 4.67,-3.04 4.73,-6.23 z"
   id="path883" />
			
			
			
		</g>
	</g>
</g>
<g
   id="R_copy_xA0_Image_00000123408844964950069510000008665678532883894407_"
   clip-path="url(#clipPath4298)"
   transform="translate(-4,-3)">
	<g
   id="g906">
		<g
   id="g904">
			<path
   d="m 398.17,63.36 c -3.17,0 -6.34,0 -9.51,0 0.17,-0.6 0.3,-1.22 0.52,-1.81 2.04,-5.34 0.51,-11.82 -3.64,-15.36 -1.99,-1.7 -3.44,-1.24 -3.96,1.33 -1.03,5.09 -0.22,9.92 2.14,14.52 0.21,0.4 0.29,0.88 0.43,1.32 -2.93,0 -5.87,0 -8.8,0 -0.27,-3.26 -0.6,-6.52 -0.8,-9.79 -0.63,-10.46 -1.16,-20.92 -0.18,-31.39 0.3,-3.18 0.72,-6.37 2.04,-9.32 1.54,-3.45 3.06,-3.95 6.18,-1.94 7.21,4.64 12.27,10.89 13.98,19.54 0.48,2.42 0.91,4.88 0.22,7.36 -0.53,1.95 -1.67,2.91 -3.67,2.88 -0.95,-0.02 -1.89,-0.2 -2.84,-0.24 -0.4,-0.02 -0.81,0.14 -1.21,0.22 0.14,0.38 0.18,0.86 0.43,1.14 1.38,1.54 2.82,3.03 4.22,4.55 3.72,4.03 5.38,8.77 4.81,14.28 -0.11,0.9 -0.24,1.8 -0.36,2.71 z M 389.61,31.7 c -0.28,-4.13 -2.15,-8.05 -5.3,-11.34 -2.16,-2.25 -3.56,-1.83 -4.52,1.18 -1.09,3.42 -1.18,6.92 -0.76,10.43 0.18,1.52 0.68,3.04 1.3,4.44 0.86,1.93 2.51,2.56 4.53,2.02 2.95,-0.79 4.67,-3.05 4.75,-6.73 z"
   id="path896" />
			
			
			
		</g>
	</g>
</g>
<g
   id="S_xA0_Image_00000152983452899643529870000002927622876286752685_"
   clip-path="url(#clipPath4294)"
   transform="translate(-4,-3)">
	<g
   id="g915">
		<g
   id="g913">
			
			<path
   d="m 401.48,45.41 c 0.49,0.44 0.83,0.75 1.17,1.06 4.3,3.93 8.67,7.79 13.92,10.4 1.29,0.64 2.75,1.08 4.17,1.28 2.02,0.29 3.17,-0.52 4.06,-2.4 1.83,-3.88 0.91,-11.85 -5.08,-14.02 -2.29,-0.83 -4.77,-1.24 -7.2,-1.51 -7.91,-0.89 -11.35,-5.92 -12.51,-12.54 -0.62,-3.53 -0.32,-7.04 1.36,-10.3 2.21,-4.29 5.91,-6.52 10.49,-7.24 6.05,-0.95 11.36,0.87 16.06,4.72 0.64,0.53 0.9,1.1 0.9,1.95 -0.04,4.32 -0.01,8.65 -0.02,12.97 0,0.34 -0.04,0.69 -0.08,1.34 -0.41,-0.46 -0.64,-0.69 -0.84,-0.95 -3.35,-4.14 -6.87,-8.11 -11.42,-10.97 -1.3,-0.81 -2.75,-1.43 -4.21,-1.91 -2.37,-0.77 -4.37,0.1 -5.71,2.26 -3.4,5.48 -1.17,11.87 5.01,14.08 2.95,1.05 6,1.82 8.97,2.82 8.69,2.92 12.9,12.98 8.76,21.03 -2.28,4.43 -6.3,6.15 -10.94,6.63 -5.76,0.6 -11,-1.05 -15.83,-4.14 -0.37,-0.23 -0.72,-0.79 -0.74,-1.21 -0.19,-4.12 -0.32,-8.24 -0.45,-12.36 -0.01,-0.26 0.08,-0.51 0.16,-0.99 z"
   id="path911" />
		</g>
	</g>
</g>
<g
   id="L_xA0_Image_00000171698148269931800720000001484679683254681755_"
   clip-path="url(#clipPath4290)"
   transform="translate(-4,-3)">
	<g
   id="g928">
		<g
   id="g926">
			
			<path
   d="m 113.14,9.6 c -0.52,3.23 -1,6.47 -1.56,9.69 -2.1,12.15 -3.58,24.34 -2.59,36.71 0.08,0.95 0.41,1.54 1.17,2.03 4.18,2.7 9.05,1.76 11.99,-2.46 0.82,-1.19 1.27,-2.63 1.92,-3.95 0.18,-0.36 0.46,-0.67 0.69,-1 0,4.16 0,8.32 0,12.48 -0.43,0.04 -0.85,0.11 -1.28,0.12 -3.14,0.07 -6.29,0.12 -9.43,0.22 -0.39,0.01 -0.77,0.25 -1.15,0.38 -3.88,0 -7.75,0 -11.63,0 0.52,-3.87 1.12,-7.73 1.53,-11.62 1.25,-11.69 1.04,-23.38 -0.42,-35.04 -0.32,-2.53 -0.74,-5.04 -1.11,-7.57 3.96,0.01 7.92,0.01 11.87,0.01 z"
   id="path920" />
			
			<path
   class="st1"
   d="m 112.9,63.82 c 0.38,-0.13 0.77,-0.37 1.15,-0.38 3.14,-0.1 6.29,-0.14 9.43,-0.22 0.43,-0.01 0.86,-0.08 1.28,-0.12 0.12,0.6 -0.12,0.74 -0.71,0.74 -3.71,-0.03 -7.43,-0.02 -11.15,-0.02 z"
   id="path924" />
		</g>
	</g>
	<rect
   x="112.44"
   y="62.299999"
   width="12.36"
   height="1.54"
   id="rect930" />
	<g
   id="g936">
		<g
   id="g934">
			
		</g>
	</g>
</g>
<g
   id="O_xA0_Image_00000099655951529350382630000005092070712381333379_"
   clip-path="url(#clipPath4286)"
   transform="translate(-4,-3)">
	<g
   id="g949">
		<g
   id="g947">
			<path
   d="M 271.63736,9.5867363 274.63,9.6 c 0.21916,0.03389 0.41826,0.1422838 0.51826,0.1822838 C 278.21826,11.102283 279.78,13.84 281.24,16.66 c 6.6,12.74 6.96,25.67 0.82,38.68 -1.59,3.37 -3.28167,5.992716 -6.6564,8.209373 -0.1,0.04 -0.29243,0.190418 -0.7636,0.290627 h -3.1 c -0.4518,-0.107154 -0.81381,-0.37389 -1.02381,-0.47389 -1.79,-0.82 -2.60619,-2.24611 -3.70619,-3.83611 -4.1,-5.93 -5.98,-12.65 -6.54,-19.75 -0.51,-6.42 0.5,-12.69 2.81,-18.68 1.75,-4.52 3.45893,-9.093627 8.19893,-11.3736271 0.08,-0.03 0.22211,-0.1059551 0.35843,-0.1396366 z M 265.72,35.36 c -0.06,5.93 0.6,9.95 1.98,13.81 0.67,1.89 1.59,3.76 2.72,5.42 1.59,2.35 3.61,2.29 5.3,-0.01 0.75,-1.02 1.41,-2.14 1.89,-3.31 3.52,-8.59 3.69,-17.34 0.81,-26.12 -0.61,-1.87 -1.56,-3.68 -2.66,-5.32 -1.66,-2.47 -3.66,-2.4 -5.46,0.01 -0.52,0.7 -0.99,1.45 -1.37,2.24 -2.27,4.76 -3.13,9.84 -3.21,13.28 z"
   id="path939"
   sodipodi:nodetypes="cccccccccccccccccccccccc" />
			
			
			
		</g>
	</g>
	<g
   id="g955">
		<g
   id="g953">
			
		</g>
	</g>
</g>
<g
   id="T_xA0_Image_00000007429701181760542970000007416426080242045610_"
   clip-path="url(#clipPath4282)"
   transform="translate(-4,-3)">
	<g
   id="g966">
		<g
   id="g964">
			<path
   d="m 305.36,63.36 c -3.64,0 -7.28,0 -10.92,0 0.31,-1.77 0.72,-3.52 0.91,-5.3 0.73,-6.82 1.66,-13.63 2.01,-20.48 0.29,-5.72 -0.03,-11.48 -0.3,-17.22 -0.08,-1.78 -0.7,-3.59 -1.36,-5.28 -0.56,-1.43 -1.66,-1.58 -2.89,-0.66 -1.2,0.9 -2.03,2.06 -2.49,3.54 -0.51,1.67 -1.18,3.29 -1.83,4.92 -0.16,0.39 -0.5,0.71 -0.76,1.06 -0.16,-0.03 -0.31,-0.07 -0.47,-0.1 -0.39,-4.89 0.03,-9.81 -0.19,-14.7 8.55,0 17.1,0 25.65,0 -0.01,4.36 -0.01,8.71 -0.04,13.07 0,0.44 -0.16,0.88 -0.24,1.32 -0.13,-0.01 -0.27,-0.01 -0.4,-0.02 -0.1,-0.32 -0.22,-0.64 -0.31,-0.97 -0.79,-2.94 -2.01,-5.63 -4.33,-7.69 -1.67,-1.49 -2.8,-1.3 -3.57,0.84 -0.55,1.52 -0.93,3.15 -1.09,4.76 -1.1,11.2 -0.35,22.35 1.11,33.46 0.41,3.16 1,6.3 1.51,9.45 z"
   id="path958" />
			
			
		</g>
	</g>
	<g
   id="g972">
		<g
   id="g970">
			
		</g>
	</g>
	<g
   id="g978">
		<g
   id="g976">
			<path
   d="m 270.78,62.41 c 0.38,0.37 0.81,0.7 1.27,0.96 0.26,-0.61 0.51,-1.22 0.77,-1.83 -0.34,-0.11 -0.69,-0.23 -1.03,-0.34 -0.83,-0.27 -1.58,0.74 -1.13,1.47 0.58,0.93 1.72,1.18 2.74,1.08 1.08,-0.11 2.03,-0.51 2.88,-1.18 0.19,-0.15 0.29,-0.48 0.29,-0.71 0,-0.25 -0.11,-0.54 -0.29,-0.71 -0.19,-0.17 -0.44,-0.3 -0.71,-0.29 -0.28,0.01 -0.49,0.12 -0.71,0.29 0.23,-0.18 -0.02,0.01 -0.07,0.04 -0.07,0.05 -0.15,0.1 -0.23,0.14 -0.08,0.05 -0.16,0.09 -0.24,0.13 -0.04,0.02 -0.08,0.04 -0.12,0.06 -0.1,0.04 -0.08,0.04 0.05,-0.02 -0.03,0.04 -0.2,0.07 -0.25,0.09 -0.08,0.03 -0.17,0.05 -0.26,0.08 -0.09,0.03 -0.17,0.04 -0.26,0.06 -0.04,0.01 -0.09,0.02 -0.13,0.02 -0.09,0.01 -0.09,0.01 0,0 0.09,-0.01 0.09,-0.01 0,0 -0.04,0 -0.09,0.01 -0.13,0.01 -0.09,0.01 -0.18,0.01 -0.27,0.01 -0.09,0 -0.17,0 -0.26,-0.01 -0.28,-0.02 0.15,0.04 -0.02,0 -0.08,-0.02 -0.15,-0.03 -0.23,-0.06 -0.04,-0.01 -0.07,-0.02 -0.11,-0.04 0.15,0.07 0.18,0.07 0.08,0.03 -0.22,-0.15 0.09,0.12 -0.03,-0.01 -0.18,-0.2 0.07,0.13 -0.02,-0.02 -0.38,0.49 -0.75,0.98 -1.13,1.47 0.34,0.11 0.69,0.23 1.03,0.34 0.47,0.16 1,-0.14 1.18,-0.58 0.19,-0.45 0.03,-1 -0.41,-1.25 -0.09,-0.05 -0.18,-0.11 -0.27,-0.16 -0.05,-0.03 -0.21,-0.18 -0.26,-0.18 0.03,0 0.15,0.12 0.03,0.03 -0.04,-0.03 -0.07,-0.06 -0.11,-0.09 -0.09,-0.08 -0.18,-0.16 -0.26,-0.24 -0.37,-0.37 -1.05,-0.4 -1.41,0 -0.34,0.4 -0.37,1.02 0.03,1.41 z"
   id="path974" />
		</g>
	</g>
	<g
   id="g984">
		<g
   id="g982">
			
		</g>
	</g>
	<g
   id="g990">
		<g
   id="g988">
			<path
   d="m 270.18,62.52 c 0.41,0.34 0.84,0.66 1.3,0.94 0.26,-0.61 0.51,-1.22 0.77,-1.83 -0.12,-0.04 -0.23,-0.08 -0.34,-0.13 0.08,0.03 0.16,0.07 0.24,0.1 -0.5,-0.21 -0.97,-0.49 -1.4,-0.82 0.07,0.05 0.13,0.1 0.2,0.16 -0.24,-0.18 -0.46,-0.38 -0.67,-0.6 -0.47,0.47 -0.94,0.94 -1.41,1.41 0.6,0.53 1.24,1.02 1.92,1.43 0.45,0.27 1.12,0.11 1.37,-0.36 0.26,-0.49 0.12,-1.08 -0.36,-1.37 -0.37,-0.23 -0.74,-0.47 -1.08,-0.74 0.07,0.05 0.13,0.1 0.2,0.16 -0.22,-0.17 -0.43,-0.35 -0.64,-0.53 -0.2,-0.18 -0.44,-0.29 -0.71,-0.29 -0.25,0 -0.54,0.11 -0.71,0.29 -0.37,0.4 -0.39,1.01 0,1.41 0.8,0.82 1.78,1.42 2.86,1.8 0.22,0.08 0.57,0.03 0.77,-0.1 0.19,-0.12 0.32,-0.27 0.41,-0.48 0.19,-0.46 0.02,-0.99 -0.41,-1.25 -0.29,-0.17 -0.56,-0.36 -0.83,-0.57 0.07,0.05 0.13,0.1 0.2,0.16 -0.09,-0.07 -0.18,-0.14 -0.27,-0.22 -0.21,-0.17 -0.43,-0.29 -0.71,-0.29 -0.25,0 -0.54,0.11 -0.71,0.29 -0.17,0.19 -0.3,0.44 -0.29,0.71 0.02,0.26 0.1,0.55 0.3,0.72 z"
   id="path986" />
		</g>
	</g>
</g>
<g
   id="P_xA0_Image_00000006683373036183509860000016169887368538283670_"
   clip-path="url(#clipPath4278)"
   transform="translate(-4,-3)">
	<g
   id="g1003">
		<path
   id="path993"
   d="m 133.91797,9.1152344 c -1.22652,-0.04689 -2.24446,0.6162513 -3.04883,1.9843746 -1.43,2.429998 -1.95,5.160394 -2.25,7.900391 -0.36,3.259997 -0.59852,6.53055 -0.72852,9.810547 -0.34999,8.709991 0.33868,17.390321 0.88868,26.070312 0.19,2.989997 0.53078,5.969222 0.80078,8.949219 h 14.48047 c -0.17,-0.31 -0.27125,-0.709688 -0.53125,-0.929687 -5.83,-4.879995 -9.20883,-11.139695 -10.29883,-18.679688 -0.06,-0.379999 -0.01,-0.769922 -0.01,-1.169922 1.54,0.15 2.97993,0.359922 4.41992,0.419922 2.78,0.11 5.40954,-0.461017 7.76954,-2.041015 1.88999,-1.249999 3.13351,-2.910237 3.35351,-5.240235 0.13958,-0.66979 0.25305,-2.251094 0.27735,-2.871094 v -0.621093 c -0.0374,-0.499582 -0.22196,-1.388126 -0.25196,-1.828125 -0.76,-8.119992 -4.74922,-14.449927 -10.69922,-19.669922 -0.71,-0.62 -1.52914,-1.160079 -2.36914,-1.5800784 -0.64375,-0.3156247 -1.24522,-0.4825928 -1.80273,-0.5039062 z m 1.64453,8.8496096 c 0.34969,-0.02321 0.73891,0.109141 1.20703,0.384765 0.41,0.24 0.81063,0.51961 1.14063,0.84961 3.23999,3.359996 5.35054,7.301254 5.81054,12.03125 0.29,2.929997 -0.97992,5.090079 -3.41992,6.080078 -3.38,1.379998 -6.12062,-0.0013 -7.14062,-3.78125 -0.52,-1.909998 -0.69079,-3.909377 -1.05078,-6.109375 0.45999,-2.269998 0.9307,-4.689846 1.4707,-7.089844 0.12,-0.529999 0.43,-1.030469 0.75,-1.480469 0.39937,-0.568124 0.78282,-0.854926 1.23242,-0.884765 z" />
		<path
   d="m 132.11,27.42 c 0.36,2.2 0.54,4.2 1.05,6.11 1.01,3.79 3.75,5.17 7.14,3.78 2.44,-1 3.7,-3.15 3.42,-6.08 -0.46,-4.72 -2.57,-8.67 -5.81,-12.03 -0.33,-0.34 -0.73,-0.61 -1.14,-0.85 -1.07,-0.63 -1.73,-0.51 -2.44,0.5 -0.32,0.45 -0.63,0.96 -0.75,1.48 -0.54,2.4 -1.01,4.82 -1.47,7.09 z"
   id="path995"
   style="fill:none" />
		
		
		
	</g>
	<g
   id="g1009">
		<g
   id="g1007">
			
		</g>
	</g>
	<g
   id="g1015">
		<g
   id="g1013">
			
		</g>
	</g>
	<g
   id="g1021">
		<g
   id="g1019">
			
		</g>
	</g>
	<g
   id="g1027">
		<g
   id="g1025">
			
		</g>
	</g>
	<g
   id="g1033">
		<g
   id="g1031">
			
		</g>
	</g>
	<g
   id="g1039">
		<g
   id="g1037">
			
		</g>
	</g>
	<g
   id="g1045">
		<g
   id="g1043">
			
		</g>
	</g>
	<g
   id="g1051">
		<g
   id="g1049">
			<path
   d="m 130.28,26.03 c 0,0.77 0,1.53 0,2.3 0,0.26 0.11,0.53 0.29,0.71 0.17,0.17 0.46,0.3 0.71,0.29 0.54,-0.02 1,-0.44 1,-1 0,-0.77 0,-1.53 0,-2.3 0,-0.26 -0.11,-0.53 -0.29,-0.71 -0.17,-0.17 -0.46,-0.3 -0.71,-0.29 -0.54,0.02 -1,0.44 -1,1 z"
   id="path1047" />
		</g>
	</g>
	<g
   id="g1057">
		<g
   id="g1055">
			<path
   d="m 146.83171,31.66 c 0.0169,0.85 0.0422,1.69 0.0506,2.54 0.008,0.39 -0.0169,0.77 -0.0337,1.16 -0.008,0.07 -0.008,0.06 0.008,-0.05 -0.008,0.06 -0.0169,0.12 -0.0253,0.17 -0.0169,0.09 -0.0253,0.17 -0.0506,0.26 -0.0169,0.09 -0.0337,0.17 -0.059,0.25 -0.008,0.04 -0.12648,0.37 -0.0506,0.17 -0.18551,0.48 -0.12648,1.1 0.30355,1.37 0.37101,0.23 0.96125,0.15 1.15519,-0.36 0.33728,-0.89 0.44689,-1.83 0.43846,-2.8 0,-0.91 -0.0337,-1.81 -0.0506,-2.72 -0.008,-0.52 -0.37944,-1.02 -0.8432,-1 -0.45533,0.04 -0.86007,0.45 -0.8432,1.01 z"
   id="path1053"
   style="stroke-width:0.91826" />
		</g>
	</g>
	<g
   id="g1063">
		<g
   id="g1061">
			<path
   d="m 131.27,27.27 c 1.29,0 1.29,-2 0,-2 -1.29,0 -1.29,2 0,2 z"
   id="path1059" />
		</g>
	</g>
	<g
   id="g1069">
		<g
   id="g1067">
			<path
   d="m 131.34,27.3 c 1.29,0 1.29,-2 0,-2 -1.29,0 -1.29,2 0,2 z"
   id="path1065" />
		</g>
	</g>
	<g
   id="g1075">
		<g
   id="g1073">
			<path
   d="m 131.23,27.16 c 1.29,0 1.29,-2 0,-2 -1.29,0 -1.29,2 0,2 z"
   id="path1071" />
		</g>
	</g>
	<g
   id="g1081">
		<g
   id="g1079">
			<path
   d="m 131.3,27.16 c 1.29,0 1.29,-2 0,-2 -1.28,0 -1.29,2 0,2 z"
   id="path1077" />
		</g>
	</g>
	<g
   id="g1087">
		<g
   id="g1085">
			<path
   d="m 131.37,27.16 c 1.29,0 1.29,-2 0,-2 -1.28,0 -1.29,2 0,2 z"
   id="path1083" />
		</g>
	</g>
</g>
</svg>
