<?xml version="1.0" encoding="utf-8"?>
<!-- Generator: Adobe Illustrator 26.0.3, SVG Export Plug-In . SVG Version: 6.00 Build 0)  -->
<svg version="1.1" xmlns="http://www.w3.org/2000/svg" xmlns:xlink="http://www.w3.org/1999/xlink" x="0px" y="0px"
	 viewBox="0 0 438.48 72" style="enable-background:new 0 0 438.48 72;" xml:space="preserve">
<style type="text/css">
	.st0{enable-background:new    ;}
	.st1{fill:#FFFFFF;}
	.st2{fill:#202021;}
	.st3{fill:#F7F7F8;}
	.st4{fill:none;stroke:#FFFFFF;stroke-miterlimit:10;}
	.st5{fill:#FDFEFE;}
</style>
<g id="A_00000047774185925011521400000017929968242027757217_" class="st0">
	<g>
		<g>
			<path class="st1" d="M0.01,71.97c0-23.73,0-47.46-0.01-71.2c0-0.55,0.06-0.88,0.71-0.75c0.15,0.03,0.32,0,0.48,0
				c145.37,0,290.74,0,436.11-0.02c0.95,0,1.18,0.15,1.18,1.15c-0.04,23.22-0.04,46.43,0,69.65c0,0.93-0.13,1.19-1.14,1.19
				C291.56,71.97,145.79,71.97,0.01,71.97z M29.78,63.42c0.08,0.34,0.29,0.37,0.48,0.37c4.43,0.01,8.87,0.01,13.3,0.04
				c0.52,0,0.59-0.24,0.58-0.65c-0.06-2.52,0.07-5.05-0.19-7.54c-0.66-6.47-1.51-12.91-3.09-19.24c-1.52-6.08-3.14-12.12-5.65-17.88
				c-1.12-2.56-2.33-5.1-4.37-7.09c-0.95-0.93-1.95-1.87-3.48-1.79c-1.52,0.08-2.55,1.02-3.5,2.03c-1.97,2.1-3.18,4.67-4.28,7.28
				c-2.54,6.05-4.19,12.37-5.63,18.76c-1.87,8.3-2.75,16.69-2.68,25.19c0.01,0.7,0.16,0.95,0.92,0.94
				c3.95-0.04,7.91-0.01,11.87-0.03c0.36,0,0.81,0.15,1.07-0.28c-0.05-0.27-0.28-0.28-0.44-0.37c-8.94-4.79-8.71-14.89-2.5-20.39
				c2.46-2.18,5.31-2.86,8.43-1.37c5.95,2.85,8.37,11.17,4.9,16.87C34.13,60.56,32.15,62.24,29.78,63.42z"/>
			<path class="st2" d="M29.78,63.42c2.37-1.18,4.35-2.86,5.75-5.16c3.47-5.7,1.05-14.02-4.9-16.87c-3.12-1.49-5.97-0.81-8.43,1.37
				c-6.21,5.51-6.44,15.6,2.5,20.39c0.16,0.09,0.4,0.1,0.44,0.37c-0.26,0.43-0.71,0.28-1.07,0.28c-3.96,0.01-7.91-0.01-11.87,0.03
				c-0.76,0.01-0.92-0.24-0.92-0.94c-0.07-8.5,0.8-16.89,2.68-25.19c1.44-6.39,3.09-12.71,5.63-18.76c1.1-2.62,2.31-5.19,4.28-7.28
				c0.94-1.01,1.98-1.94,3.5-2.03c1.52-0.08,2.52,0.86,3.48,1.79c2.04,1.99,3.25,4.53,4.37,7.09c2.51,5.76,4.13,11.8,5.65,17.88
				c1.58,6.33,2.43,12.77,3.09,19.24c0.25,2.49,0.13,5.03,0.19,7.54c0.01,0.41-0.06,0.66-0.58,0.65c-4.43-0.02-8.87-0.02-13.3-0.04
				C30.07,63.79,29.86,63.76,29.78,63.42z M19.58,36.27c0,0.56-0.02,1.12,0.01,1.67c0.03,0.47,0.03,1,0.58,1.21
				c0.51,0.2,0.83-0.21,1.15-0.48c0.77-0.64,1.48-1.35,2.26-1.97c2.75-2.17,5.05-2.2,7.85-0.14c0.39,0.28,0.72,0.64,1.13,0.89
				c0.74,0.46,1.3,1.68,2.28,1.14c0.94-0.51,0.63-1.73,0.59-2.65c-0.19-3.83-1.23-7.47-2.7-10.99c-0.74-1.78-1.6-3.49-2.97-4.88
				c-1.52-1.53-2.95-1.53-4.49-0.05c-0.67,0.64-1.19,1.4-1.64,2.2C21.19,26.61,20.03,31.35,19.58,36.27z"/>
			<path class="st3" d="M19.58,36.27c0.45-4.93,1.62-9.66,4.04-14.03c0.45-0.8,0.97-1.56,1.64-2.2c1.54-1.48,2.97-1.48,4.49,0.05
				c1.37,1.38,2.23,3.1,2.97,4.88c1.47,3.52,2.5,7.16,2.7,10.99c0.05,0.92,0.35,2.14-0.59,2.65c-0.98,0.53-1.54-0.69-2.28-1.14
				c-0.4-0.25-0.74-0.6-1.13-0.89c-2.8-2.06-5.1-2.03-7.85,0.14c-0.78,0.62-1.49,1.33-2.26,1.97c-0.32,0.27-0.64,0.67-1.15,0.48
				c-0.55-0.21-0.56-0.74-0.58-1.21C19.55,37.39,19.58,36.83,19.58,36.27z"/>
		</g>
	</g>
	<g>
		<g>
			<path class="st1" d="M56.55,8.51c-1.76,0-3.52,0-5.28,0c-0.52,0-1.02,0.46-1,1c0.02,0.54,0.44,1,1,1c1.76,0,3.52,0,5.28,0
				c0.52,0,1.02-0.46,1-1C57.52,8.97,57.11,8.51,56.55,8.51L56.55,8.51z"/>
		</g>
	</g>
	<g>
		<g>
			<path class="st1" d="M56.14,8.93c-0.79-0.58-1.74-0.98-2.7-1.16c-0.27-0.05-0.53-0.04-0.77,0.1C52.46,8,52.26,8.24,52.2,8.47
				c-0.06,0.26-0.05,0.54,0.1,0.77c0.13,0.21,0.35,0.41,0.6,0.46c0.43,0.08,0.85,0.2,1.25,0.37C54.08,10.04,54,10,53.92,9.97
				c0.43,0.18,0.83,0.41,1.21,0.69c0.2,0.14,0.55,0.16,0.77,0.1c0.23-0.06,0.48-0.24,0.6-0.46c0.12-0.23,0.18-0.51,0.1-0.77
				c-0.03-0.08-0.07-0.16-0.1-0.24C56.41,9.14,56.29,9.02,56.14,8.93L56.14,8.93z"/>
		</g>
	</g>
	<g>
		<g>
			<path class="st1" d="M57.74,12.89c5.79,0,5.8-9,0-9C51.95,3.89,51.94,12.89,57.74,12.89L57.74,12.89z"/>
		</g>
	</g>
	<g>
		<g>
			<path class="st1" d="M50.83,9.49c-0.45,0.49-0.88,1.03-1.23,1.61c-0.35,0.58-0.6,1.24-0.83,1.86c-0.19,0.6-0.21,1.2-0.08,1.79
				c0.03,0.6,0.21,1.16,0.53,1.67c0.28,0.52,0.67,0.95,1.16,1.26c0.43,0.4,0.94,0.67,1.53,0.81c1.15,0.26,2.44,0.21,3.47-0.45
				c0.3-0.23,0.61-0.47,0.91-0.7c0.56-0.56,0.94-1.22,1.16-1.99c0.02-0.06,0.05-0.12,0.07-0.18c-0.15,0.36-0.3,0.72-0.45,1.07
				c0.15-0.36,0.35-0.69,0.58-1.01c-0.23,0.3-0.47,0.61-0.7,0.91c0.08-0.1,0.16-0.2,0.25-0.3c0.8-0.87,1.32-1.98,1.32-3.18
				c0.02-0.62-0.11-1.2-0.39-1.73c-0.18-0.56-0.49-1.04-0.93-1.45c-0.86-0.79-1.98-1.37-3.18-1.32C52.85,8.23,51.64,8.61,50.83,9.49
				L50.83,9.49z"/>
		</g>
	</g>
	<g>
		<g>
			<path class="st1" d="M55.49,8.29c-0.91,0.07-1.82,0.04-2.73-0.07c0.09,0.01,0.18,0.02,0.27,0.04c-0.08-0.01-0.15-0.02-0.23-0.03
				c-0.28-0.04-0.52-0.05-0.77,0.1c-0.21,0.12-0.41,0.36-0.46,0.6c-0.06,0.26-0.05,0.54,0.1,0.77c0.13,0.2,0.35,0.42,0.6,0.46
				c1.07,0.16,2.14,0.22,3.22,0.14c0.27-0.02,0.51-0.1,0.71-0.29c0.17-0.17,0.3-0.46,0.29-0.71C56.47,8.78,56.05,8.25,55.49,8.29
				L55.49,8.29z"/>
		</g>
	</g>
	<g>
		<g>
			<path class="st1" d="M57.3,8.87c-1.43-0.69-3-1.05-4.6-1c-0.5,0.02-0.92,0.37-0.98,0.87c-0.06,0.45,0.22,1.02,0.72,1.1
				c0.59,0.09,1.18,0.24,1.75,0.43c0.14,0.05,0.28,0.1,0.42,0.15c0.07,0.03,0.14,0.05,0.21,0.08c0.07,0.03,0.05,0.02-0.07-0.03
				c0.03,0.01,0.07,0.03,0.1,0.04c0.28,0.12,0.55,0.26,0.82,0.41c0.46,0.25,1.11,0.13,1.37-0.36c0.25-0.47,0.13-1.1-0.36-1.37
				c-1.15-0.63-2.41-1.08-3.7-1.29c-0.09,0.65-0.18,1.31-0.27,1.96c0.35-0.01,0.69,0,1.04,0.03c0.07,0.01,0.15,0.01,0.22,0.02
				c0.05,0.01,0.1,0.01,0.15,0.02c-0.14-0.02-0.16-0.02-0.05,0c0.16,0.03,0.32,0.05,0.47,0.09c0.33,0.07,0.65,0.16,0.96,0.26
				c0.16,0.05,0.33,0.12,0.49,0.18c0.24,0.09-0.2-0.09,0.03,0.01c0.09,0.04,0.18,0.08,0.27,0.13c0.47,0.23,1.1,0.14,1.37-0.36
				C57.89,9.79,57.8,9.11,57.3,8.87L57.3,8.87z"/>
		</g>
	</g>
</g>
<g id="D_xA0_Image_00000069356055637647294980000017168001504841422003_">
	<g>
		<g>
			<path d="M57.28,63.84c-2.14,0-4.28,0-6.42,0c-0.41-0.18-0.81-0.45-1.24-0.5c-0.68-0.08-0.93-0.35-0.95-1.06
				c-0.1-3.67-0.33-7.34-0.36-11.02c-0.1-10.78-0.34-21.58,1.34-32.28c0.51-3.22,0.99-6.51,3.59-8.9c0.48,0,0.95,0,1.43,0
				c0.12,0.16,0.2,0.36,0.35,0.46c3,1.98,5.35,4.64,7.42,7.53c4.03,5.63,6.78,11.9,8.6,18.58c1.36,5.01,1.97,10.1,0.99,15.3
				c-0.6,3.2-1.88,5.9-4.54,7.86c-2.59,1.91-5.51,2.91-8.64,3.45C58.3,63.35,57.8,63.64,57.28,63.84z M52.59,35.25
				c0.24,3.45,0.29,7.06,0.79,10.61c0.44,3.1,1.17,6.2,2.15,9.17c0.87,2.6,2.66,3.02,4.84,1.32c3.51-2.73,5.72-6.35,6.09-10.83
				c0.51-6.27-0.94-12.18-4.24-17.51c-1.35-2.18-3.04-4.18-4.82-6.04c-1.27-1.33-2.51-0.96-3.28,0.72
				c-0.41,0.89-0.76,1.88-0.85,2.85C52.99,28.71,52.82,31.9,52.59,35.25z"/>
			<path class="st1" d="M57.28,63.84c0.52-0.2,1.03-0.49,1.57-0.59c3.13-0.54,6.05-1.54,8.64-3.45c2.66-1.96,3.94-4.66,4.54-7.86
				c0.98-5.2,0.37-10.28-0.99-15.3c-1.82-6.68-4.57-12.95-8.6-18.58c-2.07-2.89-4.42-5.55-7.42-7.53c-0.15-0.1-0.24-0.3-0.35-0.46
				c6.1,0,12.19,0,18.3,0c0,17.92,0,35.84,0,53.76C67.73,63.84,62.5,63.84,57.28,63.84z"/>
			<path class="st1" d="M53.23,10.08c-2.59,2.39-3.08,5.68-3.59,8.9c-1.69,10.7-1.44,21.5-1.34,32.28
				c0.03,3.67,0.26,7.34,0.36,11.02c0.02,0.71,0.27,0.98,0.95,1.06c0.43,0.05,0.83,0.33,1.24,0.5c-0.95,0-1.9,0-2.85,0
				c0-17.92,0-35.84,0-53.76C49.74,10.08,51.49,10.08,53.23,10.08z"/>
			<path class="st1" d="M52.59,35.25c0.23-3.34,0.4-6.53,0.7-9.71c0.09-0.97,0.44-1.95,0.85-2.85c0.77-1.68,2.01-2.06,3.28-0.72
				c1.77,1.86,3.47,3.86,4.82,6.04c3.3,5.33,4.75,11.24,4.24,17.51c-0.37,4.48-2.59,8.1-6.09,10.83c-2.18,1.7-3.97,1.28-4.84-1.32
				c-0.99-2.97-1.72-6.07-2.15-9.17C52.88,42.31,52.83,38.7,52.59,35.25z"/>
		</g>
	</g>
	<g>
		<g>
			<path class="st1" d="M58.55,63.33c-1.57,0.29-3.17,0.49-4.77,0.46c-1.46-0.02-2.85-0.18-4.21-0.41c-0.53-0.09-1.08,0.14-1.23,0.7
				c-0.13,0.48,0.16,1.14,0.7,1.23c1.57,0.26,3.16,0.45,4.75,0.48c1.77,0.03,3.57-0.21,5.3-0.53c0.53-0.1,0.83-0.74,0.7-1.23
				C59.62,63.47,59.08,63.23,58.55,63.33L58.55,63.33z"/>
		</g>
	</g>
	<path class="st4" d="M49.44,63.36"/>
	<path class="st4" d="M58.1,63.43"/>
	<path class="st4" d="M50.28,63.57"/>
	<g>
		<g>
			<path class="st1" d="M56.17,8.58c-0.64-0.35-1.34-0.54-2.07-0.55c-0.5-0.01-0.92,0.39-0.98,0.87c-0.03,0.21,0,0.45,0.12,0.64
				c0.15,0.23,0.34,0.37,0.6,0.46c0.7,0.26,1.41,0.52,2.11,0.77c0.18-0.64,0.35-1.29,0.53-1.93c-0.14-0.05-0.28-0.1-0.42-0.16
				c0.08,0.03,0.16,0.07,0.24,0.1c-0.35-0.15-0.69-0.34-1.01-0.56c-0.2-0.14-0.54-0.16-0.77-0.1c-0.23,0.06-0.48,0.24-0.6,0.46
				c-0.12,0.23-0.18,0.51-0.1,0.77c0.08,0.26,0.24,0.44,0.46,0.6c0.51,0.36,1.08,0.62,1.66,0.82c0.24,0.08,0.56,0.02,0.77-0.1
				c0.21-0.12,0.41-0.36,0.46-0.6c0.06-0.26,0.05-0.54-0.1-0.77c-0.15-0.23-0.34-0.37-0.6-0.46c-0.7-0.26-1.41-0.52-2.11-0.77
				c-0.09,0.65-0.18,1.31-0.27,1.96c0.14,0,0.28,0.01,0.42,0.03c-0.09-0.01-0.18-0.02-0.27-0.04c0.29,0.04,0.57,0.12,0.84,0.23
				c-0.08-0.03-0.16-0.07-0.24-0.1c0.11,0.05,0.21,0.09,0.31,0.15c0.23,0.13,0.51,0.17,0.77,0.1c0.23-0.06,0.48-0.24,0.6-0.46
				c0.12-0.23,0.18-0.51,0.1-0.77C56.55,8.93,56.4,8.7,56.17,8.58L56.17,8.58z"/>
		</g>
	</g>
	<g>
		<g>
			<path class="st1" d="M148.94,30.77c0.06,1.99,0.02,3.98-0.1,5.97c0.67,0,1.33,0,2,0c-0.06-2.11-0.09-4.21-0.11-6.32
				c0-0.52-0.46-1.02-1-1c-0.54,0.02-1,0.44-1,1c0.01,2.11,0.05,4.21,0.11,6.32c0.01,0.52,0.45,1.02,1,1c0.57-0.03,0.97-0.44,1-1
				c0.12-1.99,0.15-3.98,0.1-5.97c-0.01-0.52-0.45-1.02-1-1C149.41,29.79,148.93,30.21,148.94,30.77L148.94,30.77z"/>
		</g>
	</g>
</g>
<g id="E_xA0_Image_00000170977620299830753730000016252138667960391346_">
	<g>
		<g>
			<path d="M96.48,50.4c0,4.3,0,8.61,0,12.96c-6.72,0-13.44,0-20.16,0c0-17.76,0-35.52,0-53.28c6.25,0,12.49,0,18.74,0
				c0,4.47,0,8.95,0,13.42c-0.39-0.18-0.49-0.38-0.6-0.59c-2.01-3.95-6.23-5.89-10.49-4.82c-0.61,0.15-1.21,0.28-1.21,1.18
				c0.03,5.6,0,11.2,0.05,16.8c0,0.31,0.46,0.84,0.76,0.89c3.75,0.61,7.75-1.57,9.42-5.05c0.14-0.3,0.31-0.59,0.62-1.18
				c0,4.69,0,9.02,0,13.5c-3.3-3.8-5.87-4.59-9.78-3.18c-0.72,0.26-1.08,0.63-1.07,1.47c0.03,5,0.03,10,0,15
				c0,0.78,0.2,1.13,1.03,1.22c5.19,0.56,10.1-2.39,12.04-7.28C95.98,51.08,96.26,50.75,96.48,50.4z"/>
			<path class="st1" d="M96.48,50.4c-0.22,0.35-0.5,0.68-0.65,1.06c-1.94,4.89-6.85,7.84-12.04,7.28c-0.83-0.09-1.03-0.44-1.03-1.22
				c0.03-5,0.03-10,0-15c-0.01-0.84,0.35-1.21,1.07-1.47c3.91-1.42,6.48-0.62,9.78,3.18c0-4.48,0-8.82,0-13.5
				c-0.31,0.59-0.48,0.88-0.62,1.18c-1.67,3.48-5.67,5.66-9.42,5.05c-0.3-0.05-0.76-0.58-0.76-0.89c-0.05-5.6-0.02-11.2-0.05-16.8
				c0-0.91,0.6-1.03,1.21-1.18c4.26-1.07,8.48,0.88,10.49,4.82c0.1,0.21,0.21,0.41,0.6,0.59c0-4.47,0-8.95,0-13.42
				c0.47,0,0.95,0,1.42,0C96.48,23.52,96.48,36.96,96.48,50.4z"/>
			<path class="st1" d="M76.32,10.08c0,17.76,0,35.52,0,53.28c-0.08-0.16-0.23-0.32-0.23-0.48c-0.01-17.44-0.01-34.88,0-52.32
				C76.09,10.4,76.24,10.24,76.32,10.08z"/>
		</g>
	</g>
</g>
<g id="E_copy_xA0_Image_00000063594763361147196480000010852325457868596622_">
	<g>
		<g>
			<path d="M369.84,49.92c0,4.32,0,8.64,0,12.96c-6.8,0-13.6,0-20.4,0c0-17.76,0-35.52,0-53.28c6.33,0,12.65,0,18.98,0
				c0,4.48,0,8.97,0,13.45c-0.12,0.01-0.24,0.02-0.37,0.04c-0.13-0.23-0.26-0.46-0.38-0.7c-1.99-3.9-6.34-5.87-10.52-4.75
				c-0.63,0.17-1.15,0.37-1.14,1.24c0.03,5.56,0.02,11.11,0.01,16.67c0,0.63,0.18,0.95,0.86,0.99c3.83,0.23,6.88-1.13,9-4.42
				c0.31-0.48,0.54-1.01,0.8-1.52c0.07,0.02,0.13,0.04,0.2,0.06c0,4.3,0,8.6,0,13.08c-0.26-0.24-0.39-0.31-0.47-0.43
				c-2.07-3.39-6.06-3.98-9.44-2.69c-0.69,0.26-0.97,0.67-0.96,1.43c0.03,5,0.03,9.99,0,14.99c-0.01,0.89,0.3,1.17,1.14,1.24
				c5.32,0.47,10.02-2.45,12.02-7.5C369.29,50.46,369.61,50.21,369.84,49.92z"/>
			<path class="st1" d="M369.84,49.92c-0.23,0.29-0.55,0.54-0.68,0.87c-2,5.04-6.7,7.97-12.02,7.5c-0.84-0.07-1.15-0.35-1.14-1.24
				c0.04-5,0.03-9.99,0-14.99c0-0.76,0.27-1.17,0.96-1.43c3.38-1.29,7.37-0.7,9.44,2.69c0.07,0.12,0.21,0.2,0.47,0.43
				c0-4.48,0-8.78,0-13.08c-0.07-0.02-0.13-0.04-0.2-0.06c-0.27,0.51-0.49,1.04-0.8,1.52c-2.12,3.29-5.18,4.65-9,4.42
				c-0.68-0.04-0.86-0.36-0.86-0.99c0.01-5.56,0.02-11.11-0.01-16.67c-0.01-0.88,0.51-1.07,1.14-1.24
				c4.18-1.12,8.54,0.84,10.52,4.75c0.12,0.24,0.25,0.47,0.38,0.7c0.12-0.01,0.24-0.02,0.37-0.04c0-4.48,0-8.97,0-13.45
				c0.47,0,0.95,0,1.42,0C369.84,23.04,369.84,36.48,369.84,49.92z"/>
			<path class="st1" d="M349.44,9.6c0,17.76,0,35.52,0,53.28c-0.08-0.16-0.23-0.32-0.23-0.48c-0.01-17.44-0.01-34.88,0-52.32
				C349.21,9.92,349.36,9.76,349.44,9.6z"/>
		</g>
	</g>
</g>
<g id="H_xA0_Image_00000170976951284359101930000000537458138064405431_">
	<g>
		<g>
			<path d="M160.69,63.81c-3.8,0-7.61,0-11.41,0c0.17-0.73,0.39-1.45,0.52-2.19c0.85-4.79,1.87-9.56,2.47-14.38
				c1.14-9.15,1.1-18.33-0.02-27.48c-0.42-3.4-1.02-6.78-1.54-10.17c3.49,0,6.97,0,10.46,0c-0.01,0.2,0,0.4-0.04,0.6
				c-0.98,4.73-2,9.45-2.95,14.18c-0.5,2.52-0.81,5.06,0.3,7.54c2.21,4.92,7.57,5.5,10.73,1.15c1.16-1.6,1.64-3.44,1.31-5.33
				c-0.81-4.59-1.79-9.16-2.71-13.73c-0.3-1.47-0.63-2.93-0.94-4.4c3.96,0,7.92,0,11.88,0c0,0.32,0,0.64,0,0.96
				c-0.21,0.3-0.56,0.57-0.62,0.89c-0.92,4.86-2.07,9.69-2.63,14.6c-1.39,12.06-0.45,24.01,2.61,35.76c0.1,0.38,0.42,0.7,0.64,1.05
				c0.18,0.82-0.13,1-0.95,0.98c-3.64-0.06-7.29-0.02-10.93-0.02c0.17-0.64,0.29-1.3,0.52-1.92c1.64-4.45,2.86-8.98,2.52-13.79
				c-0.19-2.62-1.5-4.59-3.76-5.89c-1.69-0.98-3.4-0.94-5.07,0.1c-2.14,1.33-3.31,3.29-3.53,5.79c-0.3,3.31,0.26,6.54,1.17,9.7
				C159.31,59.83,160.03,61.81,160.69,63.81z"/>
			<path class="st1" d="M166.87,9.6c0.31,1.47,0.64,2.93,0.94,4.4c0.92,4.57,1.9,9.14,2.71,13.73c0.33,1.89-0.15,3.73-1.31,5.33
				c-3.16,4.35-8.52,3.77-10.73-1.15c-1.11-2.47-0.8-5.02-0.3-7.54c0.94-4.74,1.96-9.46,2.95-14.18c0.04-0.19,0.03-0.4,0.04-0.6
				C163.06,9.6,164.96,9.6,166.87,9.6z"/>
			<path class="st1" d="M160.69,63.81c-0.66-2-1.38-3.99-1.97-6.01c-0.92-3.16-1.47-6.39-1.17-9.7c0.22-2.5,1.39-4.47,3.53-5.79
				c1.66-1.03,3.38-1.07,5.07-0.1c2.25,1.3,3.57,3.27,3.76,5.89c0.35,4.81-0.87,9.34-2.52,13.79c-0.23,0.62-0.35,1.28-0.52,1.92
				C164.81,63.81,162.75,63.81,160.69,63.81z"/>
			<path class="st1" d="M150.7,9.6c0.52,3.39,1.12,6.77,1.54,10.17c1.12,9.15,1.16,18.33,0.02,27.48c-0.6,4.82-1.62,9.59-2.47,14.38
				c-0.13,0.74-0.34,1.46-0.52,2.19c-0.08-0.28-0.23-0.56-0.23-0.84c-0.01-17.79-0.01-35.58-0.01-53.38
				C149.6,9.6,150.15,9.6,150.7,9.6z"/>
			<path class="st1" d="M178.75,62.86c-0.22-0.35-0.54-0.67-0.64-1.05c-3.06-11.76-4-23.7-2.61-35.76c0.56-4.9,1.71-9.74,2.63-14.6
				c0.06-0.33,0.41-0.59,0.62-0.89C178.75,27.99,178.75,45.42,178.75,62.86z"/>
		</g>
	</g>
</g>
<g id="H_copy_xA0_Image_00000006695120077124933210000018279363944495043769_">
	<g>
		<g>
			<path d="M326.77,63.33c-3.8,0-7.61,0-11.41,0c0.19-0.64,0.43-1.26,0.55-1.91c0.82-4.52,1.79-9.01,2.37-13.56
				c1.67-12.99,1.16-25.91-1.49-38.74c3.49,0,6.97,0,10.46,0c0,0.24,0.05,0.48,0.01,0.71c-0.96,4.68-1.97,9.36-2.9,14.05
				c-0.5,2.52-0.82,5.05,0.26,7.53c2.15,4.93,7.52,5.56,10.71,1.26c1.34-1.81,1.68-3.88,1.31-6.02c-0.66-3.77-1.44-7.51-2.22-11.26
				c-0.44-2.1-0.97-4.18-1.47-6.27c3.96,0,7.92,0,11.88,0c0,0.32,0,0.64,0,0.96c-0.19,0.32-0.46,0.62-0.56,0.96
				c-1.46,5.57-2.36,11.23-2.86,16.98c-0.95,10.89,0.03,21.62,2.54,32.22c0.18,0.74,0.58,1.43,0.88,2.14c0.18,0.82-0.13,1-0.95,0.98
				c-3.64-0.06-7.29-0.02-10.93-0.02c0.2-0.64,0.37-1.29,0.61-1.92c1.64-4.45,2.85-8.98,2.51-13.78c-0.19-2.63-1.51-4.59-3.76-5.88
				c-1.69-0.97-3.4-0.94-5.06,0.1c-2.18,1.35-3.35,3.36-3.55,5.9c-0.3,3.85,0.51,7.54,1.64,11.18
				C325.8,60.4,326.29,61.87,326.77,63.33z"/>
			<path class="st1" d="M332.95,9.12c0.49,2.09,1.03,4.17,1.47,6.27c0.78,3.74,1.56,7.49,2.22,11.26c0.37,2.14,0.03,4.21-1.31,6.02
				c-3.18,4.3-8.56,3.67-10.71-1.26c-1.08-2.48-0.77-5.01-0.26-7.53c0.93-4.69,1.94-9.36,2.9-14.05c0.05-0.23,0-0.47-0.01-0.71
				C329.14,9.12,331.04,9.12,332.95,9.12z"/>
			<path class="st1" d="M326.77,63.33c-0.48-1.47-0.97-2.93-1.43-4.4c-1.13-3.64-1.94-7.33-1.64-11.18c0.2-2.55,1.37-4.55,3.55-5.9
				c1.66-1.04,3.38-1.07,5.06-0.1c2.25,1.3,3.57,3.26,3.76,5.88c0.34,4.81-0.86,9.34-2.51,13.78c-0.23,0.63-0.41,1.28-0.61,1.92
				C330.89,63.33,328.83,63.33,326.77,63.33z"/>
			<path class="st1" d="M316.78,9.12c2.66,12.83,3.17,25.76,1.49,38.74c-0.59,4.55-1.56,9.04-2.37,13.56
				c-0.12,0.65-0.36,1.27-0.55,1.91c-0.08-0.28-0.23-0.56-0.23-0.84c-0.01-17.79-0.01-35.58-0.01-53.38
				C315.68,9.12,316.23,9.12,316.78,9.12z"/>
			<path class="st1" d="M344.83,62.38c-0.3-0.71-0.7-1.4-0.88-2.14c-2.51-10.6-3.49-21.33-2.54-32.22c0.5-5.74,1.4-11.41,2.86-16.98
				c0.09-0.35,0.37-0.64,0.56-0.96C344.83,27.51,344.83,44.94,344.83,62.38z"/>
		</g>
	</g>
</g>
<g id="I_xA0_Image_00000107556810345373205200000006892409153485771966_">
	<g>
		<g>
			<path d="M194.88,62.88c0,0.32,0,0.63,0,0.96c-3.68,0-7.36,0-11.05,0c0.46-2.99,1.02-5.96,1.35-8.96
				c1.42-12.75,1.42-25.49-0.26-38.22c-0.31-2.36-0.73-4.71-1.09-7.06c3.68,0,7.36,0,11.05,0c0,0.32,0,0.64,0,0.96
				c-0.18,0.28-0.47,0.53-0.53,0.83c-0.81,4.19-1.75,8.36-2.34,12.59c-1.74,12.34-0.86,24.56,1.98,36.65
				C194.17,61.4,194.58,62.13,194.88,62.88z"/>
			<path class="st1" d="M194.88,62.88c-0.3-0.75-0.71-1.48-0.89-2.26c-2.84-12.09-3.72-24.31-1.98-36.65
				c0.59-4.22,1.53-8.4,2.34-12.59c0.06-0.3,0.35-0.55,0.53-0.83C194.88,28,194.88,45.44,194.88,62.88z"/>
			<path class="st1" d="M183.83,9.6c0.37,2.35,0.78,4.7,1.09,7.06c1.67,12.73,1.67,25.47,0.26,38.22c-0.33,3-0.89,5.97-1.35,8.96
				c-0.08-0.16-0.23-0.32-0.23-0.48c-0.01-17.76-0.01-35.52,0-53.28C183.61,9.92,183.75,9.76,183.83,9.6z"/>
		</g>
	</g>
	<g>
		<g>
			<path class="st1" d="M196.33,12.11c0.01-0.07,0.01-0.13,0.02-0.2c-0.01,0.09-0.02,0.18-0.04,0.27c0.06-0.41,0.16-0.81,0.32-1.19
				c-0.03,0.08-0.07,0.16-0.1,0.24c0.14-0.33,0.32-0.64,0.53-0.94c0.14-0.2,0.16-0.54,0.1-0.77c-0.06-0.23-0.24-0.48-0.46-0.6
				c-0.23-0.12-0.51-0.18-0.77-0.1c-0.08,0.03-0.16,0.07-0.24,0.1c-0.15,0.09-0.27,0.21-0.36,0.36c-0.6,0.83-0.92,1.82-1.01,2.83
				c-0.02,0.24,0.13,0.54,0.29,0.71c0.17,0.17,0.46,0.3,0.71,0.29c0.26-0.01,0.53-0.1,0.71-0.29
				C196.22,12.62,196.3,12.39,196.33,12.11L196.33,12.11z"/>
		</g>
	</g>
	<g>
		<g>
			<path class="st1" d="M195.35,9.19c-0.57,1.21-0.92,2.45-1.08,3.78c-0.03,0.24,0.13,0.55,0.29,0.71c0.17,0.17,0.46,0.3,0.71,0.29
				c0.26-0.01,0.53-0.1,0.71-0.29c0.19-0.21,0.26-0.43,0.29-0.71c0.01-0.06,0.01-0.12,0.02-0.18c-0.01,0.09-0.02,0.18-0.04,0.27
				c0.13-0.91,0.37-1.81,0.72-2.66c-0.03,0.08-0.07,0.16-0.1,0.24c0.06-0.15,0.13-0.29,0.2-0.44c0.12-0.25,0.18-0.5,0.1-0.77
				c-0.06-0.23-0.24-0.48-0.46-0.6C196.27,8.6,195.59,8.69,195.35,9.19L195.35,9.19z"/>
		</g>
	</g>
	<g>
		<g>
			<path class="st1" d="M195.14,9.69c-0.22,0.47-0.44,0.94-0.66,1.41c0.61,0.26,1.22,0.51,1.83,0.77c0.1-0.53,0.25-1.05,0.46-1.55
				c-0.03,0.08-0.07,0.16-0.1,0.24c0.02-0.04,0.03-0.08,0.05-0.11c0.07-0.11,0.11-0.24,0.12-0.37c0.03-0.13,0.02-0.27-0.02-0.4
				c-0.06-0.23-0.24-0.48-0.46-0.6c-0.23-0.12-0.51-0.18-0.77-0.1c-0.23,0.07-0.49,0.23-0.6,0.46c-0.27,0.61-0.49,1.24-0.61,1.9
				c-0.04,0.13-0.05,0.27-0.02,0.4c0.01,0.13,0.05,0.26,0.12,0.37c0.05,0.07,0.1,0.13,0.16,0.2c0.09,0.1,0.2,0.17,0.32,0.21
				c0.2,0.08,0.44,0.12,0.65,0.05c0.23-0.08,0.49-0.23,0.6-0.46c0.22-0.47,0.44-0.94,0.66-1.41c0.07-0.11,0.11-0.24,0.12-0.37
				c0.03-0.13,0.02-0.27-0.02-0.4c-0.06-0.23-0.24-0.48-0.46-0.6c-0.23-0.12-0.51-0.18-0.77-0.1C195.5,9.3,195.25,9.45,195.14,9.69
				L195.14,9.69z"/>
		</g>
	</g>
	<g>
		<g>
			<path class="st1" d="M195.78,60.56c1.29,0,1.29-2,0-2C194.49,58.56,194.49,60.56,195.78,60.56L195.78,60.56z"/>
		</g>
	</g>
	<g>
		<g>
			<path class="st1" d="M195.08,61.9c1.29,0,1.29-2,0-2C193.79,59.9,193.79,61.9,195.08,61.9L195.08,61.9z"/>
		</g>
	</g>
	<g>
		<g>
			<path class="st1" d="M194.19,61.41c0.36,0.83,0.73,1.67,1.09,2.5c0.58-0.34,1.15-0.67,1.73-1.01c-0.18-0.3-0.34-0.61-0.48-0.94
				c0.03,0.08,0.07,0.16,0.1,0.24c-0.25-0.6-0.43-1.23-0.52-1.88c-0.03-0.22-0.27-0.5-0.46-0.6c-0.2-0.11-0.41-0.15-0.64-0.12
				c-0.47,0.06-0.89,0.48-0.87,0.98c0.06,1.17,0.51,2.22,0.99,3.28c0.58-0.34,1.15-0.67,1.73-1.01c-0.12-0.2-0.23-0.41-0.32-0.62
				c0.03,0.08,0.07,0.16,0.1,0.24c-0.16-0.39-0.27-0.79-0.32-1.2c0.01,0.09,0.02,0.18,0.04,0.27c-0.01-0.05-0.01-0.1-0.02-0.15
				c-0.03-0.27-0.09-0.51-0.29-0.71c-0.17-0.17-0.46-0.3-0.71-0.29c-0.26,0.01-0.53,0.1-0.71,0.29c-0.17,0.18-0.32,0.45-0.29,0.71
				c0.09,0.88,0.34,1.72,0.79,2.48c0.27,0.45,0.91,0.65,1.37,0.36c0.21-0.14,0.4-0.34,0.46-0.6c0.06-0.28,0.02-0.51-0.1-0.77
				c-0.1-0.22-0.2-0.44-0.29-0.66c0.03,0.08,0.07,0.16,0.1,0.24c-0.24-0.57-0.44-1.15-0.53-1.76c0.01,0.09,0.02,0.18,0.04,0.27
				c-0.02-0.12-0.03-0.24-0.03-0.36c-0.65,0.09-1.31,0.18-1.96,0.27c0.16,1.07,0.54,2.12,1.1,3.05c0.27,0.45,0.91,0.65,1.37,0.36
				c0.21-0.14,0.4-0.34,0.46-0.6c0.01-0.09,0.02-0.18,0.04-0.27c0-0.18-0.05-0.35-0.14-0.5c-0.36-0.83-0.73-1.67-1.09-2.5
				c-0.09-0.21-0.38-0.4-0.6-0.46c-0.24-0.07-0.56-0.04-0.77,0.1c-0.21,0.14-0.4,0.34-0.46,0.6c-0.01,0.09-0.02,0.18-0.04,0.27
				C194.05,61.09,194.1,61.26,194.19,61.41L194.19,61.41z"/>
		</g>
	</g>
	<g>
		<g>
			<path class="st1" d="M232.51,53.58c0.04,0.97-0.01,1.94-0.14,2.9c0.01-0.09,0.02-0.18,0.04-0.27c0,0.02-0.01,0.04-0.01,0.06
				c-0.04,0.28-0.05,0.52,0.1,0.77c0.12,0.21,0.36,0.41,0.6,0.46c0.26,0.06,0.54,0.05,0.77-0.1c0.2-0.13,0.43-0.35,0.46-0.6
				c0.15-1.07,0.22-2.14,0.18-3.22c-0.02-0.52-0.45-1.02-1-1C232.98,52.6,232.49,53.02,232.51,53.58L232.51,53.58z"/>
		</g>
	</g>
	<g>
		<g>
			<path class="st1" d="M233.37,55.42c1.29,0,1.29-2,0-2C232.08,53.42,232.08,55.42,233.37,55.42L233.37,55.42z"/>
		</g>
	</g>
</g>
<g id="B_xA0_Image_00000140702494617783700440000018155870555308715141_">
	<g>
		<g>
			<path d="M225.66,63.84c-5.31,0-10.62,0-15.93,0c-0.22-1.9-0.47-3.8-0.64-5.71c-0.57-6.24-1.31-12.47-1.61-18.72
				c-0.21-4.24,0.06-8.53,0.39-12.77c0.24-3.05,0.74-6.11,1.47-9.08c0.78-3.17,2.04-6.18,5.4-7.57c0.11-0.05,0.15-0.26,0.23-0.39
				c1.19,0,2.38,0,3.57,0c0.14,0.17,0.25,0.42,0.43,0.48c2.39,0.89,4.18,2.56,5.74,4.52c2.63,3.32,4.47,7.06,5.67,11.12
				c0.99,3.35,1.71,6.74,0.91,10.27c-0.55,2.43-2.13,3.97-4.58,4.18c-1.37,0.11-2.76-0.06-4.14-0.12c-0.28-0.01-0.57-0.05-0.85-0.07
				c0.39,0.55,0.86,0.89,1.33,1.24c4.5,3.36,8.21,7.29,9.3,13.12c0.04,0.23,0.3,0.42,0.46,0.63c0,0.48,0,0.96,0,1.44
				c-0.15,0.17-0.39,0.33-0.43,0.52c-0.59,3.51-3.03,5.21-6.06,6.33C226.06,63.35,225.88,63.64,225.66,63.84z M212.94,49.9
				c0.23,1.69,0.3,2.86,0.55,3.98c1.06,4.78,5.29,7.17,9.9,5.62c2.08-0.7,3.19-2.32,2.68-4.44c-1.19-4.92-4.01-8.73-8.33-11.32
				c-1.53-0.92-2.71-0.54-3.38,1.13C213.67,46.63,213.32,48.53,212.94,49.9z M213.62,26.33c-0.05,5.41,3.29,9.14,8.42,9.37
				c2.73,0.12,4.18-1.2,3.89-3.85c-0.57-5.12-2.9-9.42-6.6-12.92c-1.64-1.55-2.88-1.25-4.03,0.73
				C214.09,21.72,213.7,23.99,213.62,26.33z"/>
			<path class="st1" d="M232.8,54.96c-0.16-0.21-0.42-0.4-0.46-0.63c-1.09-5.83-4.8-9.76-9.3-13.12c-0.46-0.35-0.94-0.68-1.33-1.24
				c0.28,0.03,0.57,0.06,0.85,0.07c1.38,0.05,2.77,0.23,4.14,0.12c2.45-0.2,4.03-1.74,4.58-4.18c0.79-3.52,0.08-6.92-0.91-10.27
				c-1.2-4.06-3.04-7.8-5.67-11.12c-1.55-1.96-3.35-3.63-5.74-4.52c-0.18-0.07-0.29-0.32-0.43-0.48c4.76,0,9.51,0,14.27,0
				C232.8,24.72,232.8,39.84,232.8,54.96z"/>
			<path class="st1" d="M214.96,9.6c-0.07,0.13-0.12,0.34-0.23,0.39c-3.36,1.39-4.62,4.4-5.4,7.57c-0.73,2.97-1.23,6.03-1.47,9.08
				c-0.33,4.24-0.6,8.53-0.39,12.77c0.3,6.25,1.04,12.48,1.61,18.72c0.18,1.91,0.43,3.81,0.64,5.71c-0.87,0-1.74,0-2.61,0
				c0-18.08,0-36.16,0-54.24C209.74,9.6,212.35,9.6,214.96,9.6z"/>
			<path class="st1" d="M225.66,63.84c0.21-0.2,0.39-0.49,0.65-0.58c3.04-1.13,5.47-2.82,6.06-6.33c0.03-0.19,0.28-0.35,0.43-0.52
				c0,2.48,0,4.96,0,7.44C230.42,63.84,228.04,63.84,225.66,63.84z"/>
			<path class="st1" d="M212.94,49.9c0.38-1.37,0.73-3.27,1.42-5.02c0.66-1.68,1.85-2.05,3.38-1.13c4.32,2.59,7.14,6.4,8.33,11.32
				c0.52,2.12-0.6,3.75-2.68,4.44c-4.61,1.54-8.84-0.84-9.9-5.62C213.24,52.76,213.17,51.59,212.94,49.9z"/>
			<path class="st1" d="M213.62,26.33c0.08-2.34,0.47-4.62,1.67-6.67c1.16-1.98,2.39-2.28,4.03-0.73c3.7,3.49,6.03,7.79,6.6,12.92
				c0.3,2.65-1.16,3.97-3.89,3.85C216.91,35.47,213.57,31.75,213.62,26.33z"/>
		</g>
	</g>
	<g>
		<g>
			<path class="st1" d="M232.19,52.88c0.15,1.28,0.21,2.58,0.17,3.87c-0.01,0.52,0.47,1.02,1,1c0.55-0.02,0.99-0.44,1-1
				c0.03-1.29-0.02-2.58-0.17-3.87c-0.03-0.27-0.09-0.5-0.29-0.71c-0.17-0.17-0.46-0.3-0.71-0.29
				C232.7,51.9,232.13,52.32,232.19,52.88L232.19,52.88z"/>
		</g>
	</g>
	<g>
		<g>
			<path class="st1" d="M224.01,65.92c1.16,0.03,2.31-0.26,3.33-0.81c0.44-0.23,0.59-0.81,0.41-1.25c-0.18-0.43-0.71-0.75-1.18-0.58
				c-0.78,0.28-1.59,0.48-2.42,0.59c0.09-0.01,0.18-0.02,0.27-0.04c-0.09,0.01-0.18,0.02-0.26,0.03c-0.27,0.03-0.51,0.09-0.71,0.29
				c-0.17,0.17-0.3,0.46-0.29,0.71c0.01,0.26,0.1,0.53,0.29,0.71c0.18,0.17,0.45,0.32,0.71,0.29c1.01-0.11,1.99-0.32,2.95-0.66
				c-0.26-0.61-0.51-1.22-0.77-1.83c-0.15,0.08-0.3,0.15-0.46,0.22c0.08-0.03,0.16-0.07,0.24-0.1c-0.47,0.2-0.96,0.33-1.46,0.4
				c0.09-0.01,0.18-0.02,0.27-0.04c-0.3,0.04-0.61,0.06-0.91,0.05c-0.52-0.01-1.02,0.47-1,1C223.03,65.48,223.44,65.91,224.01,65.92
				L224.01,65.92z"/>
		</g>
	</g>
	<g>
		<g>
			<path class="st1" d="M226.9,63.09c-1.38,0.33-2.76,0.63-4.16,0.9c-0.51,0.1-0.86,0.74-0.7,1.23c0.18,0.55,0.68,0.81,1.23,0.7
				c1.39-0.27,2.78-0.57,4.16-0.9c0.51-0.12,0.86-0.73,0.7-1.23C227.96,63.26,227.45,62.96,226.9,63.09L226.9,63.09z"/>
		</g>
	</g>
	<g>
		<g>
			<path class="st1" d="M219.96,8.26c-0.92-0.29-1.88-0.46-2.85-0.52c-0.91-0.05-1.93-0.05-2.79,0.27c-0.49,0.18-0.88,0.68-0.7,1.23
				c0.15,0.48,0.71,0.9,1.23,0.7c0.2-0.07,0.39-0.12,0.6-0.16c0.28-0.05-0.2,0.01,0.09-0.01c0.09-0.01,0.18-0.02,0.27-0.02
				c0.43-0.03,0.86-0.03,1.29,0c0.21,0.01,0.41,0.03,0.62,0.05c0.31,0.04-0.2-0.04,0.11,0.02c0.11,0.02,0.22,0.04,0.33,0.06
				c0.42,0.08,0.84,0.19,1.25,0.32c0.5,0.16,1.11-0.19,1.23-0.7C220.78,8.94,220.49,8.43,219.96,8.26L219.96,8.26z"/>
		</g>
	</g>
	<g>
		<g>
			<path class="st1" d="M271.24,65.54c0.06,0.01,0.12,0.01,0.18,0.02c-0.1-0.01-0.09-0.01,0,0c0.13,0.03,0.26,0.05,0.4,0.09
				c0.12,0.03,0.23,0.07,0.34,0.11c0.04,0.01,0.24,0.09,0.05,0.01c0.05,0.02,0.1,0.05,0.15,0.07c0.54,0.24,1.08,0.49,1.68,0.51
				c0.52,0.02,1.02-0.18,1.44-0.47c0.16-0.11,0.3-0.23,0.46-0.33c0.08-0.05,0.17-0.09,0.25-0.15c0.05-0.02,0.04-0.02-0.03,0.01
				c-0.07,0.03-0.08,0.03-0.03,0.02c0.02-0.01,0.04-0.01,0.06-0.02c0.08-0.02,0.04-0.02-0.11,0.01c0.52-0.06,1.03-0.41,1-1
				c-0.02-0.49-0.44-1.07-1-1c-0.52,0.07-0.95,0.24-1.37,0.55c-0.15,0.11-0.3,0.23-0.47,0.32c-0.04,0.02-0.08,0.04-0.12,0.06
				c-0.1,0.06,0.17-0.05,0.06-0.03c-0.03,0.01-0.15,0.06-0.04,0.02c0.07-0.01,0.07-0.01,0.01,0c-0.04,0-0.08,0-0.12,0
				c-0.16,0,0.01,0.02,0.03,0.01c-0.01,0.01-0.14-0.03-0.16-0.04c-0.11-0.03-0.21-0.07-0.31-0.11c0.13,0.05,0.05,0.02-0.03-0.02
				c-0.05-0.02-0.1-0.05-0.15-0.07c-0.13-0.06-0.26-0.11-0.39-0.17c-0.57-0.24-1.16-0.37-1.78-0.42c-0.52-0.05-1.02,0.49-1,1
				C270.27,65.13,270.68,65.49,271.24,65.54L271.24,65.54z"/>
		</g>
	</g>
</g>
<g id="R_xA0_Image_00000158014167786836590540000016407491116104230044_">
	<g>
		<g>
			<path d="M258.69,63.84c-3.17,0-6.34,0-9.51,0c0.17-0.6,0.3-1.22,0.52-1.8c2.06-5.38,0.51-11.92-3.68-15.42
				c-1.95-1.63-3.38-1.18-3.9,1.31c-1.06,5.12-0.24,9.98,2.13,14.61c0.21,0.4,0.27,0.87,0.4,1.31c-2.93,0-5.87,0-8.8,0
				c-0.27-3.27-0.59-6.53-0.79-9.8c-0.64-10.46-1.16-20.93-0.18-31.4c0.3-3.18,0.72-6.37,2.04-9.32c1.55-3.45,3.07-3.95,6.18-1.94
				c7.21,4.64,12.27,10.9,13.98,19.55c0.48,2.42,0.91,4.88,0.22,7.37c-0.54,1.95-1.67,2.89-3.68,2.86c-0.87-0.01-1.73-0.18-2.6-0.2
				c-0.48-0.01-0.96,0.12-1.44,0.19c0.19,0.44,0.29,0.97,0.6,1.32c1.56,1.76,3.21,3.43,4.75,5.2c3.09,3.57,4.49,7.75,4.17,12.5
				C259.01,61.39,258.83,62.61,258.69,63.84z M250.13,32.65c0.07-3.64-2.37-9.06-5.37-11.93c-2.15-2.06-3.48-1.7-4.41,1.17
				c-1.12,3.45-1.21,7-0.79,10.54c0.18,1.51,0.68,3.04,1.31,4.44c0.87,1.94,2.5,2.55,4.53,2.01
				C248.34,38.11,250.07,35.84,250.13,32.65z"/>
			<path class="st1" d="M258.69,63.84c0.14-1.23,0.32-2.45,0.41-3.68c0.32-4.74-1.08-8.92-4.17-12.5c-1.54-1.78-3.19-3.45-4.75-5.2
				c-0.3-0.34-0.4-0.87-0.6-1.32c0.48-0.07,0.96-0.21,1.44-0.19c0.87,0.02,1.74,0.19,2.6,0.2c2.02,0.03,3.14-0.91,3.68-2.86
				c0.69-2.49,0.26-4.94-0.22-7.37c-1.7-8.65-6.77-14.91-13.98-19.55c-3.12-2.01-4.64-1.51-6.18,1.94
				c-1.32,2.96-1.75,6.14-2.04,9.32c-0.98,10.47-0.45,20.94,0.18,31.4c0.2,3.27,0.52,6.53,0.79,9.8c-0.71,0-1.43,0-2.14,0
				c0-18.08,0-36.16,0-54.24c8.72,0,17.44,0,26.16,0c0,18.08,0,36.16,0,54.24C259.48,63.84,259.09,63.84,258.69,63.84z"/>
			<path class="st1" d="M244.66,63.84c-0.13-0.44-0.2-0.91-0.4-1.31c-2.38-4.62-3.19-9.48-2.13-14.61c0.51-2.49,1.95-2.94,3.9-1.31
				c4.19,3.5,5.74,10.04,3.68,15.42c-0.22,0.58-0.35,1.2-0.52,1.8C247.67,63.84,246.17,63.84,244.66,63.84z"/>
			<path class="st1" d="M250.13,32.65c-0.06,3.18-1.79,5.46-4.73,6.24c-2.03,0.54-3.66-0.08-4.53-2.01
				c-0.63-1.4-1.13-2.92-1.31-4.44c-0.42-3.54-0.33-7.09,0.79-10.54c0.93-2.87,2.26-3.23,4.41-1.17
				C247.76,23.6,250.2,29.02,250.13,32.65z"/>
		</g>
	</g>
</g>
<g id="R_copy_xA0_Image_00000123408844964950069510000008665678532883894407_">
	<g>
		<g>
			<path d="M398.17,63.36c-3.17,0-6.34,0-9.51,0c0.17-0.6,0.3-1.22,0.52-1.81c2.04-5.34,0.51-11.82-3.64-15.36
				c-1.99-1.7-3.44-1.24-3.96,1.33c-1.03,5.09-0.22,9.92,2.14,14.52c0.21,0.4,0.29,0.88,0.43,1.32c-2.93,0-5.87,0-8.8,0
				c-0.27-3.26-0.6-6.52-0.8-9.79c-0.63-10.46-1.16-20.92-0.18-31.39c0.3-3.18,0.72-6.37,2.04-9.32c1.54-3.45,3.06-3.95,6.18-1.94
				c7.21,4.64,12.27,10.89,13.98,19.54c0.48,2.42,0.91,4.88,0.22,7.36c-0.53,1.95-1.67,2.91-3.67,2.88
				c-0.95-0.02-1.89-0.2-2.84-0.24c-0.4-0.02-0.81,0.14-1.21,0.22c0.14,0.38,0.18,0.86,0.43,1.14c1.38,1.54,2.82,3.03,4.22,4.55
				c3.72,4.03,5.38,8.77,4.81,14.28C398.42,61.55,398.29,62.45,398.17,63.36z M389.61,31.7c-0.28-4.13-2.15-8.05-5.3-11.34
				c-2.16-2.25-3.56-1.83-4.52,1.18c-1.09,3.42-1.18,6.92-0.76,10.43c0.18,1.52,0.68,3.04,1.3,4.44c0.86,1.93,2.51,2.56,4.53,2.02
				C387.81,37.64,389.53,35.38,389.61,31.7z"/>
			<path class="st1" d="M398.17,63.36c0.12-0.91,0.25-1.81,0.34-2.72c0.57-5.5-1.09-10.24-4.81-14.28c-1.4-1.52-2.84-3.01-4.22-4.55
				c-0.25-0.28-0.29-0.75-0.43-1.14c0.4-0.08,0.81-0.23,1.21-0.22c0.95,0.04,1.89,0.22,2.84,0.24c2,0.04,3.14-0.93,3.67-2.88
				c0.68-2.49,0.25-4.94-0.22-7.36c-1.7-8.65-6.77-14.9-13.98-19.54c-3.12-2.01-4.64-1.5-6.18,1.94c-1.32,2.96-1.75,6.14-2.04,9.32
				c-0.98,10.47-0.45,20.93,0.18,31.39c0.2,3.27,0.53,6.53,0.8,9.79c-0.71,0-1.43,0-2.14,0c0-18.08,0-36.16,0-54.24
				c8.72,0,17.44,0,26.16,0c0,18.08,0,36.16,0,54.24C398.96,63.36,398.57,63.36,398.17,63.36z"/>
			<path class="st1" d="M384.14,63.36c-0.14-0.44-0.22-0.91-0.43-1.32c-2.36-4.6-3.17-9.43-2.14-14.52
				c0.52-2.57,1.97-3.03,3.96-1.33c4.15,3.54,5.68,10.02,3.64,15.36c-0.22,0.58-0.35,1.2-0.52,1.81
				C387.15,63.36,385.65,63.36,384.14,63.36z"/>
			<path class="st1" d="M389.61,31.7c-0.08,3.68-1.8,5.94-4.75,6.73c-2.02,0.54-3.67-0.09-4.53-2.02c-0.62-1.4-1.12-2.93-1.3-4.44
				c-0.42-3.5-0.33-7.01,0.76-10.43c0.96-3.01,2.36-3.43,4.52-1.18C387.46,23.65,389.33,27.57,389.61,31.7z"/>
		</g>
	</g>
</g>
<g id="S_xA0_Image_00000152983452899643529870000002927622876286752685_">
	<g>
		<g>
			<path class="st1" d="M431.28,64.8c-10.77,0-21.46,0-32.16,0c0-18.39,0-36.77,0-55.2c10.7,0,21.43,0,32.16,0
				C431.28,27.97,431.28,46.37,431.28,64.8z M401.48,45.41c-0.08,0.48-0.17,0.74-0.16,0.99c0.13,4.12,0.25,8.24,0.45,12.36
				c0.02,0.42,0.38,0.98,0.74,1.21c4.83,3.09,10.07,4.74,15.83,4.14c4.63-0.48,8.66-2.2,10.94-6.63c4.14-8.05-0.06-18.12-8.76-21.03
				c-2.97-1-6.02-1.76-8.97-2.82c-6.18-2.2-8.41-8.59-5.01-14.08c1.34-2.16,3.34-3.03,5.71-2.26c1.46,0.48,2.91,1.09,4.21,1.91
				c4.54,2.86,8.07,6.83,11.42,10.97c0.21,0.25,0.43,0.49,0.84,0.95c0.04-0.65,0.08-1,0.08-1.34c0-4.32-0.02-8.65,0.02-12.97
				c0.01-0.84-0.25-1.42-0.9-1.95c-4.7-3.85-10.01-5.68-16.06-4.72c-4.59,0.72-8.28,2.95-10.49,7.24c-1.68,3.26-1.98,6.77-1.36,10.3
				c1.16,6.62,4.6,11.65,12.51,12.54c2.43,0.27,4.92,0.68,7.2,1.51c5.99,2.17,6.91,10.14,5.08,14.02c-0.89,1.89-2.04,2.7-4.06,2.4
				c-1.43-0.21-2.88-0.64-4.17-1.28c-5.26-2.61-9.62-6.47-13.92-10.4C402.31,46.16,401.97,45.85,401.48,45.41z"/>
			<path d="M401.48,45.41c0.49,0.44,0.83,0.75,1.17,1.06c4.3,3.93,8.67,7.79,13.92,10.4c1.29,0.64,2.75,1.08,4.17,1.28
				c2.02,0.29,3.17-0.52,4.06-2.4c1.83-3.88,0.91-11.85-5.08-14.02c-2.29-0.83-4.77-1.24-7.2-1.51
				c-7.91-0.89-11.35-5.92-12.51-12.54c-0.62-3.53-0.32-7.04,1.36-10.3c2.21-4.29,5.91-6.52,10.49-7.24
				c6.05-0.95,11.36,0.87,16.06,4.72c0.64,0.53,0.9,1.1,0.9,1.95c-0.04,4.32-0.01,8.65-0.02,12.97c0,0.34-0.04,0.69-0.08,1.34
				c-0.41-0.46-0.64-0.69-0.84-0.95c-3.35-4.14-6.87-8.11-11.42-10.97c-1.3-0.81-2.75-1.43-4.21-1.91c-2.37-0.77-4.37,0.1-5.71,2.26
				c-3.4,5.48-1.17,11.87,5.01,14.08c2.95,1.05,6,1.82,8.97,2.82c8.69,2.92,12.9,12.98,8.76,21.03c-2.28,4.43-6.3,6.15-10.94,6.63
				c-5.76,0.6-11-1.05-15.83-4.14c-0.37-0.23-0.72-0.79-0.74-1.21c-0.19-4.12-0.32-8.24-0.45-12.36
				C401.31,46.14,401.4,45.89,401.48,45.41z"/>
		</g>
	</g>
</g>
<g id="L_xA0_Image_00000171698148269931800720000001484679683254681755_">
	<g>
		<g>
			<path class="st1" d="M113.14,9.6c3.88,0,7.75,0,11.63,0c0,13.68,0,27.35,0,41.03c-0.23,0.33-0.51,0.64-0.69,1
				c-0.65,1.31-1.1,2.76-1.92,3.95c-2.93,4.22-7.81,5.16-11.99,2.46c-0.76-0.49-1.1-1.07-1.17-2.03c-1-12.38,0.48-24.57,2.59-36.71
				C112.14,16.07,112.62,12.83,113.14,9.6z"/>
			<path d="M113.14,9.6c-0.52,3.23-1,6.47-1.56,9.69C109.48,31.44,108,43.63,108.99,56c0.08,0.95,0.41,1.54,1.17,2.03
				c4.18,2.7,9.05,1.76,11.99-2.46c0.82-1.19,1.27-2.63,1.92-3.95c0.18-0.36,0.46-0.67,0.69-1c0,4.16,0,8.32,0,12.48
				c-0.43,0.04-0.85,0.11-1.28,0.12c-3.14,0.07-6.29,0.12-9.43,0.22c-0.39,0.01-0.77,0.25-1.15,0.38c-3.88,0-7.75,0-11.63,0
				c0.52-3.87,1.12-7.73,1.53-11.62c1.25-11.69,1.04-23.38-0.42-35.04c-0.32-2.53-0.74-5.04-1.11-7.57
				C105.23,9.6,109.19,9.6,113.14,9.6z"/>
			<path class="st1" d="M101.28,9.6c0.37,2.52,0.79,5.04,1.11,7.57c1.47,11.66,1.67,23.35,0.42,35.04
				c-0.41,3.88-1.02,7.74-1.53,11.62c-0.08-0.16-0.23-0.32-0.23-0.48c-0.01-17.76-0.01-35.51,0-53.27
				C101.05,9.92,101.2,9.76,101.28,9.6z"/>
			<path class="st1" d="M112.9,63.82c0.38-0.13,0.77-0.37,1.15-0.38c3.14-0.1,6.29-0.14,9.43-0.22c0.43-0.01,0.86-0.08,1.28-0.12
				c0.12,0.6-0.12,0.74-0.71,0.74C120.34,63.81,116.62,63.82,112.9,63.82z"/>
		</g>
	</g>
	<rect x="112.44" y="62.3" width="12.36" height="1.54"/>
	<g>
		<g>
			<path d="M133.08,30.35c0-1.45,0-2.91,0-4.36c0-0.52-0.46-1.02-1-1c-0.54,0.02-1,0.44-1,1c0,1.45,0,2.91,0,4.36
				c0,0.52,0.46,1.02,1,1C132.62,31.32,133.08,30.91,133.08,30.35L133.08,30.35z"/>
		</g>
	</g>
</g>
<g id="O_xA0_Image_00000099655951529350382630000005092070712381333379_">
	<g>
		<g>
			<path d="M271.77,9.6c0.95,0,1.9,0,2.86,0c0.06,0.14,0.09,0.36,0.19,0.4c3.07,1.32,4.96,3.84,6.42,6.66
				c6.6,12.74,6.96,25.67,0.82,38.68c-1.59,3.37-3.6,6.51-7.24,8.09c-0.1,0.04-0.12,0.27-0.18,0.41c-1.03,0-2.06,0-3.1,0
				c-0.16-0.2-0.27-0.48-0.48-0.58c-1.79-0.82-3.15-2.14-4.25-3.73c-4.1-5.93-5.98-12.65-6.54-19.75
				c-0.51-6.42,0.5-12.69,2.81-18.68c1.75-4.52,3.75-8.95,8.49-11.23C271.65,9.84,271.7,9.7,271.77,9.6z M265.72,35.36
				c-0.06,5.93,0.6,9.95,1.98,13.81c0.67,1.89,1.59,3.76,2.72,5.42c1.59,2.35,3.61,2.29,5.3-0.01c0.75-1.02,1.41-2.14,1.89-3.31
				c3.52-8.59,3.69-17.34,0.81-26.12c-0.61-1.87-1.56-3.68-2.66-5.32c-1.66-2.47-3.66-2.4-5.46,0.01c-0.52,0.7-0.99,1.45-1.37,2.24
				C266.66,26.84,265.8,31.92,265.72,35.36z"/>
			<path class="st1" d="M274.63,63.84c0.06-0.14,0.08-0.37,0.18-0.41c3.65-1.58,5.65-4.72,7.24-8.09c6.15-13,5.78-25.94-0.82-38.68
				c-1.46-2.82-3.36-5.34-6.42-6.66c-0.1-0.04-0.13-0.26-0.19-0.4c4.2,0,8.4,0,12.61,0c0,18.08,0,36.16,0,54.24
				C283.03,63.84,278.83,63.84,274.63,63.84z"/>
			<path class="st1" d="M271.77,9.6c-0.07,0.1-0.12,0.24-0.21,0.28c-4.74,2.27-6.74,6.71-8.49,11.23
				c-2.32,5.99-3.33,12.25-2.81,18.68c0.57,7.1,2.44,13.82,6.54,19.75c1.1,1.59,2.46,2.92,4.25,3.73c0.2,0.09,0.32,0.38,0.48,0.58
				c-3.96,0-7.92,0-11.9,0c0-18.08,0-36.16,0-54.24C263.69,9.6,267.73,9.6,271.77,9.6z"/>
			<path class="st1" d="M265.72,35.36c0.07-3.44,0.93-8.52,3.21-13.29c0.38-0.79,0.85-1.54,1.37-2.24c1.79-2.4,3.8-2.47,5.46-0.01
				c1.1,1.63,2.05,3.45,2.66,5.32c2.88,8.78,2.71,17.53-0.81,26.12c-0.48,1.17-1.14,2.3-1.89,3.31c-1.69,2.3-3.71,2.36-5.3,0.01
				c-1.13-1.66-2.04-3.52-2.72-5.42C266.33,45.31,265.66,41.29,265.72,35.36z"/>
		</g>
	</g>
	<g>
		<g>
			<path class="st1" d="M271.51,65.41c0.09-0.01,0.17,0,0.26,0.01c-0.09-0.01-0.18-0.02-0.27-0.04c0.18,0.03,0.36,0.09,0.53,0.16
				c-0.08-0.03-0.16-0.07-0.24-0.1c0.29,0.12,0.58,0.27,0.88,0.37c0.38,0.12,0.77,0.13,1.16,0.05c0.24-0.05,0.48-0.26,0.6-0.46
				c0.13-0.21,0.18-0.53,0.1-0.77c-0.08-0.24-0.23-0.48-0.46-0.6c-0.25-0.13-0.5-0.16-0.77-0.1c-0.03,0.01-0.06,0.01-0.08,0.01
				c0.09-0.01,0.18-0.02,0.27-0.04c-0.09,0.01-0.19,0.01-0.28,0c0.09,0.01,0.18,0.02,0.27,0.04c-0.18-0.03-0.35-0.09-0.52-0.16
				c0.08,0.03,0.16,0.07,0.24,0.1c-0.53-0.23-1.07-0.52-1.67-0.47c-0.27,0.02-0.51,0.1-0.71,0.29c-0.17,0.17-0.3,0.46-0.29,0.71
				c0.01,0.26,0.1,0.53,0.29,0.71C270.99,65.28,271.25,65.43,271.51,65.41L271.51,65.41z"/>
		</g>
	</g>
</g>
<g id="T_xA0_Image_00000007429701181760542970000007416426080242045610_">
	<g>
		<g>
			<path d="M305.36,63.36c-3.64,0-7.28,0-10.92,0c0.31-1.77,0.72-3.52,0.91-5.3c0.73-6.82,1.66-13.63,2.01-20.48
				c0.29-5.72-0.03-11.48-0.3-17.22c-0.08-1.78-0.7-3.59-1.36-5.28c-0.56-1.43-1.66-1.58-2.89-0.66c-1.2,0.9-2.03,2.06-2.49,3.54
				c-0.51,1.67-1.18,3.29-1.83,4.92c-0.16,0.39-0.5,0.71-0.76,1.06c-0.16-0.03-0.31-0.07-0.47-0.1c-0.39-4.89,0.03-9.81-0.19-14.7
				c8.55,0,17.1,0,25.65,0c-0.01,4.36-0.01,8.71-0.04,13.07c0,0.44-0.16,0.88-0.24,1.32c-0.13-0.01-0.27-0.01-0.4-0.02
				c-0.1-0.32-0.22-0.64-0.31-0.97c-0.79-2.94-2.01-5.63-4.33-7.69c-1.67-1.49-2.8-1.3-3.57,0.84c-0.55,1.52-0.93,3.15-1.09,4.76
				c-1.1,11.2-0.35,22.35,1.11,33.46C304.26,57.07,304.85,60.21,305.36,63.36z"/>
			<path class="st1" d="M287.07,9.14c0.22,4.9-0.2,9.81,0.19,14.7c0.16,0.03,0.31,0.07,0.47,0.1c0.26-0.35,0.6-0.67,0.76-1.06
				c0.65-1.63,1.32-3.25,1.83-4.92c0.46-1.49,1.29-2.64,2.49-3.54c1.22-0.92,2.33-0.77,2.89,0.66c0.66,1.69,1.28,3.5,1.36,5.28
				c0.26,5.73,0.59,11.5,0.3,17.22c-0.35,6.84-1.27,13.66-2.01,20.48c-0.19,1.78-0.6,3.53-0.91,5.3c-2.61,0-5.21,0-7.84,0
				c0-17.83,0-35.67,0.01-53.5C286.61,9.56,286.34,9,287.07,9.14z"/>
			<path class="st1" d="M305.36,63.36c-0.51-3.15-1.1-6.29-1.51-9.45c-1.46-11.12-2.2-22.26-1.11-33.46
				c0.16-1.61,0.54-3.24,1.09-4.76c0.77-2.13,1.9-2.33,3.57-0.84c2.32,2.06,3.54,4.75,4.33,7.69c0.09,0.33,0.21,0.65,0.31,0.97
				c0.13,0.01,0.27,0.01,0.4,0.02c0.08-0.44,0.24-0.88,0.24-1.32c0.03-4.36,0.03-8.71,0.04-13.07c0.08,0.2,0.23,0.4,0.23,0.6
				c0.01,17.87,0.01,35.75,0.01,53.62C310.42,63.36,307.89,63.36,305.36,63.36z"/>
		</g>
	</g>
	<g>
		<g>
			<path class="st1" d="M276.37,63.5c-0.62-0.22-1.26-0.16-1.89-0.06c-0.24,0.04-0.48,0.08-0.72,0.11c0.18-0.03-0.11,0.01-0.15,0.02
				c-0.14,0.02-0.28,0.03-0.41,0.04c-0.48,0.04-0.96,0.04-1.44-0.01c0.18,0.02-0.2-0.03-0.24-0.04c-0.1-0.02-0.2-0.04-0.29-0.07
				c-0.13-0.04-0.26-0.08-0.38-0.12c-0.11-0.04-0.13-0.05-0.04-0.01c-0.06-0.03-0.12-0.06-0.18-0.09c-0.47-0.23-1.1-0.14-1.37,0.36
				c-0.24,0.45-0.14,1.12,0.36,1.37c1.02,0.51,2.14,0.69,3.28,0.64c0.57-0.03,1.14-0.1,1.71-0.19c0.1-0.02,0.21-0.03,0.31-0.05
				c0.12-0.02,0.14-0.02,0.05-0.01c0.07-0.01,0.14-0.02,0.21-0.02c0.14-0.01,0.28-0.02,0.42,0c-0.09-0.01-0.08-0.01,0.04,0.01
				c0.07,0.02,0.13,0.04,0.2,0.07c0.49,0.18,1.12-0.2,1.23-0.7C277.2,64.17,276.9,63.7,276.37,63.5L276.37,63.5z"/>
		</g>
	</g>
	<g>
		<g>
			<path d="M270.78,62.41c0.38,0.37,0.81,0.7,1.27,0.96c0.26-0.61,0.51-1.22,0.77-1.83c-0.34-0.11-0.69-0.23-1.03-0.34
				c-0.83-0.27-1.58,0.74-1.13,1.47c0.58,0.93,1.72,1.18,2.74,1.08c1.08-0.11,2.03-0.51,2.88-1.18c0.19-0.15,0.29-0.48,0.29-0.71
				c0-0.25-0.11-0.54-0.29-0.71c-0.19-0.17-0.44-0.3-0.71-0.29c-0.28,0.01-0.49,0.12-0.71,0.29c0.23-0.18-0.02,0.01-0.07,0.04
				c-0.07,0.05-0.15,0.1-0.23,0.14c-0.08,0.05-0.16,0.09-0.24,0.13c-0.04,0.02-0.08,0.04-0.12,0.06c-0.1,0.04-0.08,0.04,0.05-0.02
				c-0.03,0.04-0.2,0.07-0.25,0.09c-0.08,0.03-0.17,0.05-0.26,0.08s-0.17,0.04-0.26,0.06c-0.04,0.01-0.09,0.02-0.13,0.02
				c-0.09,0.01-0.09,0.01,0,0c0.09-0.01,0.09-0.01,0,0c-0.04,0-0.09,0.01-0.13,0.01c-0.09,0.01-0.18,0.01-0.27,0.01
				c-0.09,0-0.17,0-0.26-0.01c-0.28-0.02,0.15,0.04-0.02,0c-0.08-0.02-0.15-0.03-0.23-0.06c-0.04-0.01-0.07-0.02-0.11-0.04
				c0.15,0.07,0.18,0.07,0.08,0.03c-0.22-0.15,0.09,0.12-0.03-0.01c-0.18-0.2,0.07,0.13-0.02-0.02c-0.38,0.49-0.75,0.98-1.13,1.47
				c0.34,0.11,0.69,0.23,1.03,0.34c0.47,0.16,1-0.14,1.18-0.58c0.19-0.45,0.03-1-0.41-1.25c-0.09-0.05-0.18-0.11-0.27-0.16
				c-0.05-0.03-0.21-0.18-0.26-0.18c0.03,0,0.15,0.12,0.03,0.03c-0.04-0.03-0.07-0.06-0.11-0.09c-0.09-0.08-0.18-0.16-0.26-0.24
				c-0.37-0.37-1.05-0.4-1.41,0C270.41,61.4,270.38,62.02,270.78,62.41L270.78,62.41z"/>
		</g>
	</g>
	<g>
		<g>
			<path class="st5" d="M275.58,8.19c0.27,0.03-0.06-0.03-0.12-0.05c-0.08-0.02-0.15-0.05-0.22-0.08c-0.17-0.07-0.34-0.14-0.52-0.2
				c-0.46-0.15-0.97-0.18-1.45-0.17c-0.9,0-1.8,0.03-2.68,0.23c-0.41,0.09-0.75,0.54-0.73,0.96c0.02,0.4,0.29,0.9,0.73,0.96
				c0.44,0.06,0.79,0.06,1.23-0.01c0.52-0.08,0.85-0.76,0.7-1.23c-0.18-0.56-0.67-0.79-1.23-0.7c0.23-0.04-0.05,0-0.08,0
				c-0.05,0-0.31-0.02-0.08,0.01c0,0.64,0,1.29,0,1.93c0.11-0.03,0.23-0.05,0.35-0.07c0.28-0.05-0.2,0.02,0.08-0.01
				c0.2-0.02,0.41-0.04,0.61-0.05c0.4-0.02,0.8-0.03,1.2-0.03c0.19,0,0.39,0,0.58,0.03c-0.24-0.03,0.13,0.04,0.17,0.05
				c0.08,0.02,0.15,0.05,0.23,0.08c0.43,0.16,0.79,0.29,1.25,0.35c0.52,0.06,1.02-0.5,1-1C276.55,8.59,276.14,8.25,275.58,8.19
				L275.58,8.19z"/>
		</g>
	</g>
	<g>
		<g>
			<path d="M270.18,62.52c0.41,0.34,0.84,0.66,1.3,0.94c0.26-0.61,0.51-1.22,0.77-1.83c-0.12-0.04-0.23-0.08-0.34-0.13
				c0.08,0.03,0.16,0.07,0.24,0.1c-0.5-0.21-0.97-0.49-1.4-0.82c0.07,0.05,0.13,0.1,0.2,0.16c-0.24-0.18-0.46-0.38-0.67-0.6
				c-0.47,0.47-0.94,0.94-1.41,1.41c0.6,0.53,1.24,1.02,1.92,1.43c0.45,0.27,1.12,0.11,1.37-0.36c0.26-0.49,0.12-1.08-0.36-1.37
				c-0.37-0.23-0.74-0.47-1.08-0.74c0.07,0.05,0.13,0.1,0.2,0.16c-0.22-0.17-0.43-0.35-0.64-0.53c-0.2-0.18-0.44-0.29-0.71-0.29
				c-0.25,0-0.54,0.11-0.71,0.29c-0.37,0.4-0.39,1.01,0,1.41c0.8,0.82,1.78,1.42,2.86,1.8c0.22,0.08,0.57,0.03,0.77-0.1
				c0.19-0.12,0.32-0.27,0.41-0.48c0.19-0.46,0.02-0.99-0.41-1.25c-0.29-0.17-0.56-0.36-0.83-0.57c0.07,0.05,0.13,0.1,0.2,0.16
				c-0.09-0.07-0.18-0.14-0.27-0.22c-0.21-0.17-0.43-0.29-0.71-0.29c-0.25,0-0.54,0.11-0.71,0.29c-0.17,0.19-0.3,0.44-0.29,0.71
				C269.9,62.06,269.98,62.35,270.18,62.52L270.18,62.52z"/>
		</g>
	</g>
</g>
<g id="P_xA0_Image_00000006683373036183509860000016169887368538283670_">
	<g>
		<path d="M149.28,32.14c0,0.72,0,1.44,0,2.16c-0.21,0.62-0.55,1.22-0.61,1.85c-0.22,2.33-1.37,4.03-3.26,5.28
			c-2.36,1.58-4.99,2.15-7.77,2.04c-1.44-0.06-2.88-0.27-4.42-0.42c0,0.4-0.05,0.79,0.01,1.17c1.09,7.54,4.47,13.8,10.3,18.68
			c0.26,0.22,0.36,0.62,0.53,0.93c-4.83,0-9.66,0-14.48,0c-0.27-2.98-0.61-5.96-0.8-8.95c-0.55-8.68-1.24-17.36-0.89-26.07
			c0.13-3.28,0.37-6.55,0.73-9.81c0.3-2.74,0.82-5.47,2.25-7.9c1.17-1.99,2.79-2.49,4.85-1.48c0.84,0.42,1.66,0.96,2.37,1.58
			c5.95,5.22,9.94,11.55,10.7,19.67C148.82,31.31,149.11,31.72,149.28,32.14z"/>
		<path d="M132.11,27.42c0.36,2.2,0.54,4.2,1.05,6.11c1.01,3.79,3.75,5.17,7.14,3.78c2.44-1,3.7-3.15,3.42-6.08
			c-0.46-4.72-2.57-8.67-5.81-12.03c-0.33-0.34-0.73-0.61-1.14-0.85c-1.07-0.63-1.73-0.51-2.44,0.5c-0.32,0.45-0.63,0.96-0.75,1.48
			C133.04,22.73,132.57,25.15,132.11,27.42z"/>
		<path class="st1" d="M144.06,63.84c-0.17-0.32-0.28-0.72-0.53-0.93c-5.82-4.88-9.2-11.14-10.3-18.68
			c-0.05-0.37-0.01-0.76-0.01-1.17c1.54,0.15,2.97,0.36,4.42,0.42c2.78,0.11,5.41-0.46,7.77-2.04c1.89-1.26,3.04-2.95,3.26-5.28
			c0.06-0.63,0.4-1.23,0.61-1.85c0,9.85,0,19.69,0,29.54C147.54,63.84,145.8,63.84,144.06,63.84z"/>
		<path class="st1" d="M149.28,32.14c-0.17-0.42-0.46-0.83-0.5-1.26c-0.76-8.12-4.75-14.45-10.7-19.67
			c-0.71-0.62-1.52-1.16-2.37-1.58c-2.05-1.02-3.67-0.51-4.85,1.48c-1.43,2.43-1.95,5.16-2.25,7.9c-0.36,3.26-0.59,6.53-0.73,9.81
			c-0.35,8.71,0.34,17.39,0.89,26.07c0.19,2.99,0.53,5.97,0.8,8.95c-0.79,0-1.58,0-2.37,0c0-18.39,0-36.78,0-55.2
			c7.36,0,14.72,0,22.08,0C149.28,16.47,149.28,24.31,149.28,32.14z"/>
		<path class="st1" d="M132.11,27.42c0.46-2.27,0.93-4.69,1.47-7.09c0.12-0.53,0.43-1.03,0.75-1.48c0.71-1.01,1.37-1.13,2.44-0.5
			c0.41,0.24,0.81,0.52,1.14,0.85c3.24,3.36,5.35,7.3,5.81,12.03c0.29,2.93-0.98,5.09-3.42,6.08c-3.38,1.38-6.12,0-7.14-3.78
			C132.64,31.62,132.47,29.62,132.11,27.42z"/>
	</g>
	<g>
		<g>
			<path class="st1" d="M151.46,36.61c-0.05-1.52-0.09-3.04-0.14-4.55c-0.02-0.5-0.37-0.92-0.87-0.98c-0.46-0.06-1.01,0.23-1.1,0.72
				c-0.22,1.2-0.32,2.41-0.25,3.62c0.03,0.52,0.44,1.03,1,1c0.52-0.02,1.03-0.44,1-1c-0.03-0.55-0.03-1.09,0-1.64
				c0.02-0.27,0.04-0.53,0.07-0.8c0-0.02,0.03-0.21,0.01-0.09c-0.02,0.14,0.02-0.11,0.02-0.13c0.02-0.15,0.05-0.29,0.08-0.44
				c-0.65-0.09-1.31-0.18-1.96-0.27c0.05,1.52,0.09,3.04,0.14,4.55c0.02,0.52,0.45,1.02,1,1C150.99,37.59,151.48,37.17,151.46,36.61
				L151.46,36.61z"/>
		</g>
	</g>
	<g>
		<g>
			<path class="st1" d="M149.03,29.71c0,2.28,0,4.55,0,6.83c0,0.54,0.46,1,1,1c0.54,0,1-0.46,1-1c0-2.28,0-4.55,0-6.83
				c0-0.54-0.46-1-1-1C149.48,28.71,149.03,29.17,149.03,29.71L149.03,29.71z"/>
		</g>
	</g>
	<g>
		<g>
			<path class="st1" d="M148.91,30.21c-0.06,2.16-0.12,4.32-0.18,6.48c-0.01,0.52,0.47,1.02,1,1c0.55-0.02,0.98-0.44,1-1
				c0.06-2.16,0.12-4.32,0.18-6.48c0.01-0.52-0.47-1.02-1-1C149.35,29.23,148.92,29.64,148.91,30.21L148.91,30.21z"/>
		</g>
	</g>
	<g>
		<g>
			<path class="st1" d="M151.03,31.68c-0.03-0.33-0.05-0.66-0.08-0.98c0.01-0.14-0.02-0.27-0.09-0.39
				c-0.04-0.12-0.11-0.23-0.21-0.32c-0.09-0.1-0.2-0.17-0.32-0.21c-0.12-0.06-0.25-0.09-0.39-0.09c-0.09,0.01-0.18,0.02-0.27,0.04
				c-0.17,0.05-0.32,0.13-0.44,0.26c-0.05,0.07-0.1,0.13-0.16,0.2c-0.09,0.16-0.14,0.32-0.14,0.5c0.03,0.33,0.05,0.66,0.08,0.98
				c-0.01,0.14,0.02,0.27,0.09,0.39c0.04,0.12,0.11,0.23,0.21,0.32c0.09,0.1,0.2,0.17,0.32,0.21c0.12,0.06,0.25,0.09,0.39,0.09
				c0.09-0.01,0.18-0.02,0.27-0.04c0.17-0.05,0.32-0.13,0.44-0.26c0.05-0.07,0.1-0.13,0.16-0.2
				C150.99,32.03,151.03,31.87,151.03,31.68L151.03,31.68z"/>
		</g>
	</g>
	<g>
		<g>
			<path class="st1" d="M180.12,12.1c0.3-0.82,0.61-1.63,0.91-2.45c-0.64-0.18-1.29-0.35-1.93-0.53c-0.02,0.07-0.04,0.14-0.07,0.2
				c0.03-0.08,0.07-0.16,0.1-0.24c-0.11,0.25-0.27,0.47-0.39,0.71c-0.14,0.3-0.27,0.61-0.36,0.93c-0.17,0.59-0.24,1.2-0.32,1.81
				c-0.03,0.23,0.13,0.55,0.29,0.71c0.17,0.17,0.46,0.3,0.71,0.29c0.26-0.01,0.53-0.1,0.71-0.29c0.05-0.07,0.1-0.13,0.16-0.2
				c0.09-0.16,0.14-0.32,0.14-0.5c0.01-0.05,0.01-0.11,0.02-0.16c-0.01,0.09-0.02,0.18-0.04,0.27c0.09-0.65,0.19-1.31,0.45-1.92
				c-0.03,0.08-0.07,0.16-0.1,0.24c0.19-0.44,0.5-0.83,0.62-1.3c0.14-0.5-0.17-1.11-0.7-1.23c-0.26-0.06-0.54-0.05-0.77,0.1
				c-0.23,0.15-0.36,0.34-0.46,0.6c-0.3,0.82-0.61,1.63-0.91,2.45c-0.09,0.23-0.02,0.57,0.1,0.77c0.12,0.21,0.36,0.41,0.6,0.46
				c0.26,0.06,0.54,0.05,0.77-0.1C179.89,12.55,180.03,12.35,180.12,12.1L180.12,12.1z"/>
		</g>
	</g>
	<g>
		<g>
			<path class="st1" d="M178.1,61.45c0.14,0.97,0.46,1.9,0.89,2.78c0.11,0.22,0.37,0.4,0.6,0.46c0.24,0.07,0.56,0.04,0.77-0.1
				c0.21-0.14,0.4-0.34,0.46-0.6c0.06-0.27,0.02-0.52-0.1-0.77c-0.07-0.15-0.14-0.3-0.21-0.46c0.03,0.08,0.07,0.16,0.1,0.24
				c-0.28-0.67-0.47-1.36-0.58-2.08c-0.03-0.23-0.27-0.49-0.46-0.6c-0.21-0.13-0.53-0.18-0.77-0.1c-0.24,0.08-0.48,0.23-0.6,0.46
				c-0.03,0.08-0.07,0.16-0.1,0.24C178.05,61.1,178.05,61.27,178.1,61.45L178.1,61.45z"/>
		</g>
	</g>
	<g>
		<g>
			<path class="st1" d="M194.11,60.51c0.28,0.68,0.56,1.37,0.83,2.05c0.09,0.21,0.15,0.46,0.28,0.65c0.19,0.28,0.45,0.46,0.78,0.51
				c0.33,0.04,0.65-0.05,0.89-0.28c0.27-0.25,0.38-0.66,0.29-1.01c-0.07-0.27-0.25-0.48-0.47-0.63c-0.57-0.37-1.37-0.02-1.54,0.61
				c-0.07,0.25-0.03,0.54,0.1,0.77c0.12,0.21,0.36,0.41,0.6,0.46c0.52,0.12,1.09-0.16,1.23-0.7c0-0.01,0-0.01,0-0.02
				c-0.15,0.2-0.31,0.4-0.46,0.6c0,0,0.01-0.01,0.01-0.01c-0.08,0.03-0.16,0.07-0.24,0.1c0.01,0,0.01,0,0.02,0
				c-0.18,0-0.35,0-0.53,0c0.01,0,0.01,0,0.02,0c-0.08-0.03-0.16-0.07-0.24-0.1c0.01,0,0.01,0.01,0.02,0.01
				c-0.07-0.05-0.13-0.1-0.2-0.16c0,0,0.01,0.01,0.01,0.01c-0.09-0.15-0.17-0.29-0.26-0.44c0,0.01,0,0.01,0,0.02
				c0-0.18,0-0.35,0-0.53c0,0.01-0.01,0.02-0.01,0.02c0.09-0.15,0.17-0.29,0.26-0.44c-0.01,0.01-0.01,0.01-0.02,0.02
				c0.15-0.09,0.29-0.17,0.44-0.26c-0.01,0-0.02,0.01-0.03,0.01c0.09-0.01,0.18-0.02,0.27-0.04c-0.01,0-0.02,0-0.03,0
				c0.09,0.01,0.18,0.02,0.27,0.04c-0.01,0-0.02-0.01-0.03-0.01c0.15,0.09,0.29,0.17,0.44,0.26c-0.01-0.01-0.02-0.01-0.03-0.02
				c0.05,0.07,0.1,0.13,0.16,0.2c-0.02-0.03-0.04-0.06-0.05-0.09c0.03,0.08,0.07,0.16,0.1,0.24c-0.32-0.79-0.64-1.58-0.96-2.37
				c-0.1-0.25-0.22-0.46-0.46-0.6c-0.21-0.13-0.53-0.18-0.77-0.1c-0.24,0.08-0.48,0.23-0.6,0.46
				C194.09,59.96,194.01,60.26,194.11,60.51L194.11,60.51z"/>
		</g>
	</g>
	<g>
		<g>
			<path d="M130.28,26.03c0,0.77,0,1.53,0,2.3c0,0.26,0.11,0.53,0.29,0.71c0.17,0.17,0.46,0.3,0.71,0.29c0.54-0.02,1-0.44,1-1
				c0-0.77,0-1.53,0-2.3c0-0.26-0.11-0.53-0.29-0.71c-0.17-0.17-0.46-0.3-0.71-0.29C130.74,25.05,130.28,25.47,130.28,26.03
				L130.28,26.03z"/>
		</g>
	</g>
	<g>
		<g>
			<path d="M146.88,31.66c0.02,0.85,0.05,1.69,0.06,2.54c0.01,0.39-0.02,0.77-0.04,1.16c-0.01,0.07-0.01,0.06,0.01-0.05
				c-0.01,0.06-0.02,0.12-0.03,0.17c-0.02,0.09-0.03,0.17-0.06,0.26c-0.02,0.09-0.04,0.17-0.07,0.25c-0.01,0.04-0.15,0.37-0.06,0.17
				c-0.22,0.48-0.15,1.1,0.36,1.37c0.44,0.23,1.14,0.15,1.37-0.36c0.4-0.89,0.53-1.83,0.52-2.8c0-0.91-0.04-1.81-0.06-2.72
				c-0.01-0.52-0.45-1.02-1-1C147.34,30.69,146.86,31.1,146.88,31.66L146.88,31.66z"/>
		</g>
	</g>
	<g>
		<g>
			<path d="M131.27,27.27c1.29,0,1.29-2,0-2C129.98,25.27,129.98,27.27,131.27,27.27L131.27,27.27z"/>
		</g>
	</g>
	<g>
		<g>
			<path d="M131.34,27.3c1.29,0,1.29-2,0-2C130.05,25.3,130.05,27.3,131.34,27.3L131.34,27.3z"/>
		</g>
	</g>
	<g>
		<g>
			<path d="M131.23,27.16c1.29,0,1.29-2,0-2C129.94,25.16,129.94,27.16,131.23,27.16L131.23,27.16z"/>
		</g>
	</g>
	<g>
		<g>
			<path d="M131.3,27.16c1.29,0,1.29-2,0-2C130.02,25.16,130.01,27.16,131.3,27.16L131.3,27.16z"/>
		</g>
	</g>
	<g>
		<g>
			<path d="M131.37,27.16c1.29,0,1.29-2,0-2C130.09,25.16,130.08,27.16,131.37,27.16L131.37,27.16z"/>
		</g>
	</g>
</g>
</svg>
